<svg xmlns="http://www.w3.org/2000/svg" xmlns:xlink="http://www.w3.org/1999/xlink" viewBox="0 0 110.3 80.8"><defs><style>.cls-1{fill:url(#linear-gradient);}.cls-2{fill:url(#linear-gradient-2);}</style><linearGradient id="linear-gradient" y1="29.95" x2="110.26" y2="29.95" gradientUnits="userSpaceOnUse"><stop offset="0" stop-color="#80ef32"/><stop offset="0.31" stop-color="#75e32a"/><stop offset="0.85" stop-color="#56c414"/><stop offset="1" stop-color="#4dba0d"/></linearGradient><linearGradient id="linear-gradient-2" x1="49.65" y1="64" x2="65.23" y2="64" xlink:href="#linear-gradient"/></defs><g id="Layer_2" data-name="Layer 2"><g id="Layer_1-2" data-name="Layer 1"><path class="cls-1" d="M0,49V26.9A27.7,27.7,0,0,1,3.7,16a28.8,28.8,0,0,1,6.7-8A31.2,31.2,0,0,1,26.2.5,31.8,31.8,0,0,1,44.5,2.7a33.1,33.1,0,0,1,12.3,9.4,32,32,0,0,1,6.7,14.8,15.6,15.6,0,0,0,1,9.3c2.3,4.9,7.7,9.6,14.6,9.5s12.3-6.1,12.8-6.8a15,15,0,0,0,.8-17.5c-3.9-6-12-8.7-19.4-6.2a14.4,14.4,0,0,0-5.1,2.5A12.8,12.8,0,0,0,64.9,22a30.8,30.8,0,0,0-2.8-7,37.5,37.5,0,0,0-4.9-6.8A33.2,33.2,0,0,1,77.5.1a33.8,33.8,0,0,1,23.4,8.3c1.3,1.3,10.2,10,9.3,23.3A30.2,30.2,0,0,1,99.6,52.3a32.2,32.2,0,0,1-23.1,7.2C75.3,59.4,63,58.2,55,48.6A30.9,30.9,0,0,1,49.3,38a36.1,36.1,0,0,1-1.6-12.3A17.3,17.3,0,0,0,30.4,14.4,17.3,17.3,0,0,0,15.8,25.1L15,59.9a16.6,16.6,0,0,1-8.3-2.1A15.4,15.4,0,0,1,0,49Z"/><path class="cls-2" d="M49.6,47.2A30.3,30.3,0,0,0,58,56.5a31.3,31.3,0,0,0,7.1,3.8,22.1,22.1,0,0,1-.9,9.3,16,16,0,0,1-4.9,7.8,15.7,15.7,0,0,1-9.6,3.4C49.7,69.6,49.7,58.4,49.6,47.2Z"/></g></g></svg>