<?xml version="1.0" encoding="utf-8"?>
<!-- Generator: Adobe Illustrator 25.2.1, SVG Export Plug-In . SVG Version: 6.00 Build 0)  -->
<svg version="1.1" id="Layer_1" xmlns="http://www.w3.org/2000/svg" xmlns:xlink="http://www.w3.org/1999/xlink" x="0px" y="0px"
	 viewBox="0 0 82 82" style="enable-background:new 0 0 82 82;" xml:space="preserve">
<style type="text/css">
	.st0{fill:#2A3E45;}
</style>
<path class="st0" d="M20.8,28c0-0.1,0-0.2,0-0.3c0-0.2,0.1-0.4,0.2-0.5s0.1-0.1,0.1-0.2c0-0.1,0.1-0.1,0.1-0.1
	c0.2-0.1,0.3-0.2,0.5-0.3c0.1,0,0.2,0,0.3-0.1c0.1-0.1,0.2-0.2,0.3-0.3c0.1-0.2,0.2-0.5,0.5-0.5s0.2-0.1,0.2-0.2l0.4-0.5l0.3-0.4
	c0.1-0.1,0.2-0.2,0.4-0.2c0.1,0,0.2-0.1,0.2-0.2c0.1-0.1,0.2-0.2,0.3-0.3c0.1,0,0.2,0,0.3-0.1c0.1,0,0.2-0.1,0.2-0.1l0.6-0.4
	c0.1-0.1,0.1-0.2,0.2-0.2l0.5-0.4c0.1,0,0.1-0.2,0.2-0.2c0.2-0.1,0.4-0.2,0.6-0.3c0,0,0.1,0,0.1,0s0.1-0.1,0.1-0.2
	c0-0.1,0-0.1,0.1-0.2c0.2-0.1,0.4-0.2,0.6-0.3c0.2-0.1,0.5-0.2,0.7-0.3s0.2,0,0.4,0c0.3,0,0.5-0.2,0.9-0.3l0.3-0.1
	c0,0,0.1,0,0.1,0.1l0.1,0.4c0,0.1,0.1,0.2,0.1,0.3c0,0.2,0,0.3,0,0.5c-0.1,0.1-0.2,0.2-0.3,0.3c-0.1,0.1-0.3,0.2-0.4,0.2
	c-0.1,0-0.3,0-0.5,0c-0.2,0-0.3,0.1-0.5,0.2c0,0-0.1,0-0.1,0.1c-0.2,0.1-0.4,0.3-0.4,0.5c0,0.1-0.1,0.2-0.3,0.2
	c-0.1,0.1-0.2,0.1-0.3,0.2c-0.1,0.1-0.2,0.2-0.4,0.3c-0.1,0-0.2,0-0.2,0c-0.2,0-0.3,0.1-0.4,0.3c-0.1,0.2-0.2,0.3-0.4,0.3
	c-0.1,0-0.2,0-0.3,0.1L25.8,25c-0.1,0.1-0.2,0.1-0.3,0.3s0,0.1,0,0.1c0,0.1-0.2,0.2-0.3,0.1c-0.1,0-0.2,0-0.3,0
	c-0.1,0-0.1,0.1-0.1,0.2c0,0,0,0.1-0.1,0.1c-0.2,0.1-0.4,0.3-0.5,0.4s-0.3,0.3-0.5,0.5s-0.1,0-0.1,0.1s-0.2,0.2-0.3,0.3
	c-0.1,0.2-0.2,0.3-0.4,0.4c-0.1,0.1-0.2,0.1-0.3,0.1c0,0-0.1,0-0.1,0c-0.2,0.1-0.4,0.3-0.5,0.4s-0.2,0.2-0.3,0.3s0,0-0.1,0L20.8,28z
	"/>
<path class="st0" d="M61.5,28.6c-0.1-0.2-0.3-0.4-0.4-0.7c-0.3-0.6-0.5-1.2-0.7-1.8c-0.1-0.2-0.2-0.4-0.3-0.6
	c-0.1-0.2-0.2-0.4-0.3-0.6c-0.3-0.7-0.6-1.5-0.9-2.2c-0.2-0.4-0.4-0.8-0.6-1.2c-0.3-0.5-0.6-0.9-1-1.3c-0.6-0.7-1.3-1.3-1.9-2.1
	c-0.3-0.3-0.6-0.6-1-0.9c-0.6-0.5-1.2-1-1.9-1.5S51.6,15,51,14.6c-0.5-0.3-1-0.6-1.5-1c-0.3-0.2-0.7-0.4-1.1-0.5
	c-0.5-0.3-1.1-0.4-1.7-0.6c-0.4-0.2-0.7-0.3-1.1-0.5c-0.3-0.1-0.7-0.2-1-0.3c-0.4-0.1-0.8-0.2-1.3-0.2s-0.9-0.1-1.3-0.1
	s-0.8,0.1-1.2,0.1l-1.2,0.2l-1.2,0.3c-0.3,0.1-0.6,0.3-0.9,0.4c-0.8,0.3-1.7,0.6-2.5,1c-0.1,0.1-0.3,0.1-0.4,0.1
	c-0.3,0.1-0.5,0.3-0.6,0.5c-0.1,0.2-0.3,0.3-0.4,0.4l-1,0.7c-0.3,0.2-0.5,0.4-0.7,0.6c-0.5,0.6-0.8,1.2-1,1.9
	c-0.1,0.3-0.2,0.7-0.3,1c-0.1,0.9,0,1.9,0.3,2.8c0,0.3,0.1,0.6,0.2,0.9c0,0.1,0,0.2-0.1,0.3l-0.3,0.5c0,0.1-0.1,0.2-0.2,0.2
	s-0.4,0-0.5-0.2c-0.2-0.4-0.4-0.7-0.5-1.1c-0.2-0.7-0.3-1.4-0.3-2.1c0-0.7,0.1-1.3,0.3-2c0.1-0.7,0.4-1.4,0.7-2.1
	c0.1-0.1,0.1-0.3,0.2-0.4c0.3-0.4,0.5-0.8,0.8-1.1c0.3-0.4,0.7-0.7,1-1c0.4-0.4,0.8-0.7,1.3-0.9c0.5-0.3,1-0.6,1.6-0.9
	c0.6-0.3,1.3-0.6,2-0.9c0.4-0.1,0.7-0.2,1.1-0.2c0.7-0.1,1.3-0.2,2-0.4c0.8-0.2,1.5-0.3,2.3-0.1c0.5,0.1,1,0.1,1.5,0.2
	c0.7,0.1,1.4,0.2,2.1,0.4c0.6,0.1,1.2,0.3,1.8,0.5l0.4,0.1c0.5,0.1,0.9,0.3,1.2,0.6c0.3,0.2,0.6,0.4,0.9,0.6
	c0.3,0.2,0.5,0.3,0.8,0.4c0.2,0.1,0.3,0.2,0.5,0.2c0.4,0.3,0.8,0.6,1.2,0.9s0.8,0.6,1.2,1l1.2,1l1.1,1c0.2,0.2,0.3,0.4,0.5,0.6
	c0.5,0.5,0.9,1,1.4,1.5c0.6,0.6,1.1,1.3,1.5,2c0.2,0.4-0.1,0.6,0.1,1.1c0,0.1,0.1,0.2,0.1,0.3c0.4,0.6,0.7,1.3,0.9,2
	c0.1,0.6,0.2,1.2,0.2,1.8c0,0.1,0,0.2,0,0.3C60.9,26.7,61.8,28.3,61.5,28.6z"/>
<path class="st0" d="M59.5,28l-1-0.5c-0.3-0.1-0.7-0.3-1-0.5c-0.1-0.1-0.2-0.1-0.4-0.1c-0.1,0-0.2-0.1-0.3-0.1
	c-0.4-0.2-0.8-0.4-1.2-0.5c-0.2-0.1-0.5-0.2-0.8-0.2c-0.3,0-0.6,0-0.9,0c-0.5,0.2-1,0.3-1.6,0.3c-0.3,0-0.5,0.1-0.7,0.2
	c-0.4,0.2-0.8,0.4-1.2,0.6l-1,0.5c-0.3,0.2-0.6,0.3-1,0.4c-0.2,0.1-0.5,0.1-0.7,0.3c-0.3,0.2-0.7,0.3-1,0.4
	c-0.2,0.1-0.5,0.1-0.8,0.1c-0.2,0-0.4,0.1-0.6,0.1c-0.5,0.1-1,0.2-1.6,0.3c-0.2,0-0.5,0.1-0.7,0.2c-0.5,0.1-1,0.1-1.6,0.2
	c-0.2,0.1-0.4,0.1-0.6,0.1c-0.6,0-1.1,0-1.7,0c-0.1,0-0.2,0-0.3-0.1c-0.2-0.1-0.4,0-0.5,0.1c-0.1,0.1-0.2,0.1-0.4,0
	c-0.5,0-1-0.1-1.5-0.2c-0.6-0.1-1.2-0.3-1.8-0.5c-0.2-0.1-0.5-0.2-0.7-0.4c-0.3-0.2-0.6-0.3-0.9-0.5s-0.6-0.3-0.9-0.5
	c-0.2-0.1-0.3-0.3-0.5-0.4c-0.1-0.1-0.1-0.2-0.1-0.3l0.1-0.5c0-0.1,0-0.2,0.1-0.3s0.3-0.2,0.5-0.2c0.2,0.1,0.5,0.2,0.7,0.3
	c0.3,0.2,0.7,0.3,1,0.5c0.3,0.2,0.6,0.4,0.9,0.6c0.4,0.2,0.7,0.3,1.1,0.4c0.1,0,0.2,0,0.3,0.1c0.5,0.2,1,0.2,1.5,0.1
	c0.3,0,0.6,0,0.8,0c0.3,0,0.7,0,1,0c0.4,0,0.8,0,1.1,0c0.2,0,0.4,0,0.6,0.1c0.4,0,0.7,0,1.1-0.1c0.4-0.2,0.8-0.2,1.2-0.2
	c0.3,0,0.5,0,0.8-0.1c0.4-0.1,0.7-0.2,1.1-0.3c0.3,0,0.6-0.2,0.9-0.4l0.2-0.1c0.2-0.1,0.5-0.2,0.7-0.2c0.2,0,0.4,0,0.6-0.1
	c0.1-0.1,0.3-0.2,0.4-0.2c0.1-0.1,0.1-0.1,0.2-0.2l1.6-0.7c0.6-0.2,1.1-0.4,1.7-0.6c0.1,0,0.3,0,0.5,0c0.4-0.1,0.5,0.1,0.9,0.1
	c0.5-0.1,1.1-0.1,1.6-0.1c0.3,0,0.6,0.1,0.9,0.3c0.1,0,0.5,0.2,0.5,0.2c0.7,0.2,0.2-0.1,0.8,0.3c0.5,0.3,1,0.6,1.4,0.9
	c0,0,0.1,0.1,0.1,0.2C58.5,27,59.7,27.7,59.5,28z"/>
<path class="st0" d="M32.4,21c0-0.1,0.1-0.2,0.1-0.3c0.2-0.2,0.3-0.4,0.5-0.5c0.1,0,0.2-0.1,0.2-0.2c0.1-0.1,0.1-0.1,0.2-0.1
	c0.3-0.1,0.6-0.2,0.8-0.2s0.4,0,0.5,0c0.2,0,0.4-0.1,0.6-0.2c0.3-0.2,0.6-0.3,1-0.4c0.2,0,0.3-0.1,0.5-0.1c0.3-0.1,0.6-0.2,0.8-0.3
	l0.7-0.2c0.2-0.1,0.5-0.1,0.7,0c0.2,0,0.3,0,0.5-0.1c0.2-0.1,0.5-0.1,0.7-0.1c0.2,0,0.3,0.1,0.5,0.1c0.1,0,0.3,0,0.4,0
	c0.3,0,0.7,0,1,0c0.2,0,0.3,0,0.5,0c0.3,0,0.7,0,1,0c0.1,0,0.3-0.1,0.4-0.1c0.3,0,0.7,0.1,1,0.2c0.1,0,0.1,0.1,0.2,0.1
	c0.1,0.1,0.3,0,0.3-0.1c0.1-0.1,0.2-0.1,0.2-0.1c0.3,0,0.6,0.1,0.9,0.2l1,0.3c0.2,0,0.3,0.1,0.4,0.2c0.4,0.2,2.4,1.1,2.8,1.2
	l0.4,0.1c0,0,0.9,0.5,0.9,0.6s-0.9-0.2-0.9,0s-1.2-0.3-1.3-0.2s-0.9-0.3-1-0.3s-0.5-0.4-0.6-0.4s-0.3,0.2-0.5,0.1s-0.4-0.3-0.6-0.3
	s-0.5-0.1-0.7-0.2c0,0-0.1,0-0.2,0c-0.3-0.1-0.7-0.1-1,0c-0.2,0.1-0.4,0.1-0.6,0c-0.2,0-0.4-0.1-0.6-0.1c-0.2,0-0.5,0-0.7,0
	c-0.1,0-0.2-0.1-0.3-0.1c-0.2-0.1-0.4,0.1-0.6,0.2c-0.2,0.1-0.5,0.1-0.8,0c-0.2-0.1-0.3-0.1-0.5-0.1c-0.2,0-0.2,0.3-0.5,0.3
	c-0.2,0-0.4,0-0.6,0.1l-0.1,0.1c-0.1,0.1-0.3,0.1-0.5,0c-0.1,0-0.2-0.1-0.4-0.1c-0.1,0-0.2,0.1-0.3,0.1c-0.1,0-0.1,0.1-0.2,0.1
	c-0.3,0-0.7,0.1-1,0.2s-0.6,0.2-1,0.3c-0.1,0-0.2,0-0.2,0c-0.2,0.1-0.4,0.2-0.6,0.2c-0.3,0.1-0.5,0.2-0.7,0.3c-0.2,0-0.3,0-0.5,0
	h-0.1c-0.3,0.1-0.6,0.2-0.9,0.4c-0.2,0.1-0.4,0.2-0.5,0.3c0,0-0.1,0-0.1,0C32.8,21.5,32.6,21.3,32.4,21z"/>
<path class="st0" d="M30.7,52.2c0-0.1,0-0.2-0.1-0.2c-0.3-0.3,0-0.5-0.3-0.7s-0.8-0.6-1.2-0.9s-0.8-0.7-1.1-1
	c-0.8-0.7-1.5-1.4-2.4-2c-0.4-0.3-0.8-0.6-1.1-1c-0.3-0.3-0.6-0.6-0.8-1c-0.1-0.2-0.2-0.3-0.4-0.5c-0.1-0.2-0.2-0.4-0.4-0.5
	c-0.3-0.4-0.7-0.9-0.9-1.3c-0.2-0.4-0.5-0.9-0.6-1.3c-0.1-0.2-0.2-0.5-0.3-0.7c-0.2-0.4-0.3-0.9-0.5-1.3c0-0.1,0-0.2-0.1-0.3
	l-0.1-0.1l-0.1-0.3c-0.1-0.2-0.1-0.4-0.2-0.6c-0.1-0.3-0.2-0.7-0.3-1l-0.2-1.1c0-0.2,0-0.3,0-0.5c0-0.2,0-0.5,0-0.7
	c-0.1-0.7-0.2-1.3-0.3-1.9l-0.3-1.7c-0.2,0.2-0.3,0.4-0.5,0.5c0,0-0.2,0.2-0.2,0.4c-0.1,0.1-0.2,0.2-0.3,0.3
	c-0.3,0.3-0.6,0.7-0.9,1.1c-0.5,0.8-1,1.6-1.4,2.3h-0.1c-0.2,0.1-0.4,0.2-0.6,0.3c-0.1,0.1-0.2,0.2-0.3,0.4
	c-0.1,0.2-0.2,0.4-0.4,0.7c-0.1,0.2-0.2,0.4-0.2,0.6l-0.4,0.9c-0.1,0.3-0.3,0.5-0.4,0.8c-0.2,0.4-0.4,0.8-0.7,1.2
	c-0.4,0.4-0.6,0.9-0.8,1.5c-0.1,0.4-0.2,0.8-0.3,1.2c-0.1,0.4-0.2,0.7-0.4,1C11,44.7,10.9,45,11,45.3c0,0.1,0,0.3,0,0.4
	c-0.1,0.2-0.1,0.3-0.2,0.5c-0.3,0.4-0.4,0.9-0.5,1.4c-0.1,0.7-0.3,1.4-0.4,2.1c0,0.4,0,0.7-0.1,1.1c0,0.2,0,0.4,0,0.7
	c-0.1,0.4-0.1,0.7-0.2,1.1l-0.3,1.5c0,0.4,0,0.8,0.1,1.2c0.1,0.3,0.2,0.7,0.2,1c0,0.5,0.2,1,0.2,1.6v0.2c0,0.3,0.1,0.7,0.2,1
	c0.1,0.3,0.3,0.7,0.5,0.9c0.1,0.2,0.2,0.3,0.3,0.5l0,0l0.1,0.3c0.1,0.3,0.3,0.7,0.5,1c0.2,0.3,0.3,0.6,0.5,0.8l0.1,0.2l0.1,0.3
	c0.2,0.4,0.6,0.8,0.8,1.2l0.1,0.1l0.2,0.2c0.3,0.4,0.6,0.7,1,1l0.1,0.2l0.1,0.1c0,0,0.1,0,0.1,0c0,0,0.1,0,0.1,0
	c0.2,0,0.4,0.1,0.5,0.2c0.1,0.1,0.1,0.2,0.2,0.2l0.8,0.5c0.3,0.1,0.5,0.3,0.8,0.4c0.2,0.1,0.4,0.1,0.6,0.2c0.5,0.1,1.1,0.2,1.6,0.3
	c0.3,0,0.5,0,0.8,0c0.6,0,1.1,0,1.7,0c0.2,0,0.4,0,0.7,0c0.3,0,0.5,0,0.8,0c0.4-0.1,0.8-0.2,1.1-0.4c0.2-0.1,0.5-0.2,0.7-0.3
	c0.4-0.1,0.8-0.2,1.1-0.4c0.4-0.2,0.7-0.4,1-0.7c0.2-0.1,0.4-0.3,0.5-0.5c0.1-0.2,0.3-0.4,0.4-0.6c0.1-0.2,0.3-0.5,0.5-0.7
	c0.4-0.5,0.7-1,0.8-1.5c0.1-0.3,0.2-0.6,0.4-0.9c0.1-0.2,0.3-0.5,0.4-0.8c0.2-0.6,0.3-1.2,0.4-1.9c0-0.1,0-0.3,0-0.4v-0.4
	c0-0.7-0.2-1.3-0.4-1.9c-0.1-0.1-0.2-0.3-0.3-0.4c-0.4,0.2-0.1,1.8-0.4,2c0,0,0,0.1,0,0.1c0.1,0.3-0.2,0.8-0.2,1.1
	c0,0.5-0.3,0.2-0.4,0.7c0,0.1-0.1,0.6-0.1,0.6c-0.1,0.2-0.2,0.4-0.3,0.6c-0.1,0.4-0.2,0.8-0.4,1.2c-0.1,0.3-0.3,0.6-0.5,0.9
	c-0.1,0.1-0.2,0.2-0.2,0.3s-0.3,0.4-0.5,0.6s-0.4,0.5-0.4,0.4s0,0-0.2,0.1l-0.4,0.2c-0.2,0.1-0.5,0.2-0.7,0.4
	c-0.1,0-0.2,0.1-0.2,0.2c-0.1,0.1-0.3,0.2-0.4,0.3c-0.2,0.1-0.4,0.1-0.6,0.1c-0.2,0-0.5,0.1-0.7,0.2l-0.2,0.1
	c-0.3,0.2-0.6,0.3-0.9,0.3c-0.4,0.1-0.7,0.1-1.1,0.2c-0.3,0-0.5,0-0.8-0.1C20.1,66,19.7,66,19.3,66c-0.3,0-0.7,0-1-0.2
	c-0.1-0.1-0.3-0.2-0.5-0.3c-0.2-0.1-0.3-0.1-0.5-0.2L16.9,65c-0.3-0.1-0.6-0.3-0.8-0.5c-0.2-0.2-0.4-0.4-0.7-0.5L15,63.8l-0.1,0
	c-0.1-0.1-0.2-0.3-0.3-0.5c-0.2-0.3-0.5-0.7-0.7-1s-0.4-0.8-0.7-1.2c-0.2-0.4-0.4-0.8-0.6-1.2c-0.1-0.1-0.1-0.2-0.2-0.3
	c-0.1-0.2-0.4-0.4-0.3-0.6s-0.1-0.7-0.2-1.1L11.7,57l-0.1-0.3c-0.1-0.3-0.2-0.6-0.2-0.9v-1.2v-0.6v-0.6c0.1-0.7,0-1.4,0.2-2.1
	c0-0.2,0-0.4,0.1-0.6c0-0.4,0-0.8,0.1-1.1l0.3-1.6c0-0.2,0.1-0.3,0.1-0.5c0.2-0.3,0.4-0.7,0.5-1.1c0.1-0.5,0.3-1,0.5-1.5
	s0.3-1.2,0.5-1.9s0.4-1,0.6-1.5c0.1-0.1,0.2-0.2,0.3-0.3c0.1,0,0.2-0.1,0.2-0.2c0.1-0.1,0.1-0.2,0.2-0.3l0.2-0.4
	c0.1-0.2,0.2-0.3,0.3-0.4l0.2-0.2l0.1-0.1c0.2-0.2,0.3-0.4,0.3-0.7c0.1-0.3,0.2-0.5,0.3-0.8c0.1-0.2,0.3-0.4,0.4-0.6
	c0-0.1,0.1-0.2,0.1-0.2c0.1-0.3,0.3-0.8,0.5-1.1l0.2-0.3c0,0,0.1-0.1,0.1-0.1v0.1l0.1,0.3l0,0l0.3,1l0.2,0.7
	c0.1,0.3,0.2,0.7,0.4,1.1c0,0,0,0.1,0,0.1c0.1,0.7,0.2,1.3,0.5,1.9c0.4,0.8,0.7,1.5,1.1,2.3c0.4,0.8,0.8,1.6,1.3,2.3
	c0.3,0.5,0.6,0.9,1,1.3c0.1,0.1,0.3,0.3,0.4,0.3c0.5,0.3,0.9,0.6,1.3,1l1.9,1.6l0.8,0.8c0.4,0.4,0.7,0.8,1.1,1.2s1,0.3,1.5,0.7
	c0.1,0.1,0.2,0.1,0.3,0.2s0.3,1.2,0.5,1.2s0.3,0.8,0.5,0.8c0-0.5,0-1,0.1-1.4C30.9,52.8,30.6,52.6,30.7,52.2z"/>
<path class="st0" d="M25.2,62.8c0.4,0.3,0.8,0.6,1.1,0.8c0.6,0.5,1.2,1,1.9,1.5c0.2,0.2,0.6,0.5,1,0.8c0.3,0.3,0.6,0.5,1,0.7
	c1.4,0.7,2.8,1.3,4.3,1.7l1.4,0.4c0.2,0,0.3,0.1,0.5,0.3l0.5,0.5c0.1,0.1,0.3,0.2,0.2,0.4s-0.2,0.3-0.6,0.3
	c-0.6-0.1-1.2-0.1-1.9-0.3c-0.5-0.1-1-0.2-1.5-0.4c-0.5-0.2-1-0.3-1.5-0.5c-0.9-0.4-1.8-0.9-2.7-1.4C28,67,27,66.4,26.2,65.8
	c-0.2-0.2-0.4-0.3-0.6-0.4l-0.2-0.1c-0.4-0.3-0.8-0.7-1.2-1.1c-0.7-0.7-1.4-1.4-2.1-2.1L22,61.9c-0.5-0.5-0.9-1.1-1.2-1.7
	c-0.1-0.1-0.2-0.3-0.3-0.4c-0.5-0.6-0.8-1.3-1.3-1.9s-0.2-0.8-0.5-1.5c-0.4-0.6-0.7-1.3-1-2c-0.3-0.7-0.5-1.4-0.7-2.1
	c0.2-0.5-1-3.2-0.5-2.7c0.2,0.4,1.4,2.6,1.5,3c0.4,0.8,0.6,1.5,1,2.3c0.1,0.3,0.3,0.6,0.4,0.9c0.2,0.3,0.5,0.9,0.7,1.2
	c0.7,0.9,1.4,1.8,2.1,2.7c0.4,0.6,0.8,1.1,1.2,1.6l0.4,0.4C24.2,62,24.7,62.4,25.2,62.8z"/>
<path class="st0" d="M66.8,42.3c0.1,0.3,0.1,0.5,0.2,0.8c0,0.5,0,0.9,0,1.4c-0.1,0.5-0.1,1-0.3,1.5c-0.1,0.9,0,1.8-0.2,2.7
	c0,0.3-0.1,0.6-0.2,0.8c0,0.1-0.1,0.2-0.2,0.3L65.7,50c-0.1,0-0.2,0.1-0.3,0S65,49.8,65,49.6s0-0.7,0-1c0-0.5,0.1-1,0.1-1.6
	s0.2-1,0.2-1.5c0-0.6,0-1.1,0-1.7c0-0.1,0-0.2-0.1-0.4v-0.1c0-0.3,0-0.6,0-0.8c0-0.5-0.1-1-0.2-1.5l0,0c0-0.4,0-0.7,0-1.1
	c0-0.1,0-0.2,0-0.3c-0.1-0.8-0.3-1.6-0.5-2.3c-0.1-0.5-0.3-1-0.4-1.4c-0.1-0.3-0.1-0.5-0.1-0.8c0.2-0.3,0.5-0.5,1-0.3
	c0.1,0.2,0.3,0.3,0.4,0.5c0.3,0.5,0.5,1,0.6,1.5c0,0.2,0.1,0.4,0.2,0.6c0.1,0.2,0.1,0.4,0.2,0.5c0.1,0.7,0.2,1.3,0.3,2
	c0,0.4,0,0.8,0,1.2v0.3L66.8,42.3z"/>
<path class="st0" d="M61.6,59.4c-0.1,0.2-0.2,0.5-0.3,0.7s-0.5,0.7-0.8,1s-0.8,0.7-1,1c-0.5,0.7-0.5,0.3-1.1,1
	c-0.2,0.2-0.6,0.9-0.8,1.1c-0.1,0.1-0.2,0.1-0.4,0.1c-0.2,0-1.5,1.4-1.7,1.3s-0.2,0-0.3-0.2s1.4-1.3,1.5-1.5l0.3-0.3
	c0.1-0.1,0.1-0.3,0.2-0.4c0.3-0.4,0.6-0.8,0.9-1.2s0.6-0.9,0.9-1.3s0.2-0.4,0.4-0.8c0.1-0.1,0.4-0.2,0.5-0.3l0.1-0.1
	c0.1-0.2,0-0.7,0.2-0.9c0.3-0.4,0.5-0.8,0.7-1.3l0,0c0.2-0.3,0.4-0.6,0.6-0.9c0.1-0.1,0.1-0.1,0.2-0.2c0.4-0.7,0.8-1.3,1.1-2
	c0.2-0.4,0.4-0.9,0.6-1.3c0.1-0.2,0.3-0.5,0.4-0.7c0.4-0.1,0.7,0.1,0.9,0.4c0,0.2,0,0.4,0,0.6c-0.1,0.5-0.2,1-0.5,1.5
	c-0.1,0.2-0.2,0.3-0.2,0.5c-0.1,0.2-0.1,0.3-0.2,0.5c-0.3,0.5-0.6,1.1-1,1.6c-0.2,0.3-0.5,0.6-0.7,0.9l-0.2,0.2L61.6,59.4z"/>
<path class="st0" d="M47.3,69.7c0.3,0.1,0.9,0.4,1.2,0.5c0.8,0.1,1.6,0.2,2.3,0.2h0.7c0.1,0,0.2,0.1,0.2,0.2
	c0.1,0.1,0.8,0.2,0.9,0.4s0.2,0.2,0.1,0.3s-0.7,0.4-0.9,0.5c-0.3,0.1-0.7,0.2-1,0.2c-0.5,0.1-1.1,0.1-1.6,0c-0.5-0.1-1-0.2-1.5-0.3
	L46,71.1L45.3,71h-0.2c-0.4-0.1-0.8-0.2-1.2-0.4c-0.3-0.1-0.7-0.2-1-0.3l-0.6-0.1L42,70h-0.3l-0.3-0.1c0.9-0.4,1.9-0.7,2.8-1
	c0.4-0.1,0.8-0.3,1.1-0.4l0.5-0.2l0.2-0.1l0.1-0.1c0.4-0.3,0.8-0.6,1.1-1c0.3-0.3,0.6-0.6,0.7-1l0.1-0.3c0.1-0.3,0.3-0.5,0.5-0.8
	c0.2-0.2,0.3-0.4,0.5-0.6c0.1-0.2,0.2-0.4,0.2-0.6c0-0.1,0.1-0.2,0.1-0.4c0.4-0.9,0.6-1.7,0.9-2.6c0.1-0.3,0.2-0.6,0.4-0.9
	c0-0.1,0.1-0.2,0.1-0.2c0.2-0.7,0.5-0.8,0.6-1.5c0-0.5,0.4-1.2,0.4-1.7c0-0.1,0-0.1,0.1-0.2s-0.2-0.5,0-0.6c0.2-0.1,0.4-0.2,0.5-0.3
	c0.1,0.2,0.2,0.4,0.2,0.6c0.1,0.5,0.2,1,0.1,1.5c0,0.2,0,0.4,0,0.6c0,0.2,0,0.4,0,0.5c-0.1,0.6-0.3,1.2-0.5,1.8
	c-0.1,0.3-0.3,0.7-0.4,1l-0.1,0.3c-0.1,0.5-0.3,1.7-0.5,2.2c-0.2,0.5-0.4,0.9-0.7,1.4c-0.2,0.3-0.4,0.6-0.5,0.9
	c-0.3,0.4-0.5,0.9-0.8,1.3c-0.2,0.3-0.5,0.4-0.8,0.7c-0.2,0.2-0.4,0.4-0.7,0.5L47,69.3l-0.3,0.2c-0.1,0.1,0,0.1-0.1,0.1l0,0l0,0H47
	c0.1,0,0.1,0,0.2-0.1l0,0l0,0l0,0L47.3,69.7z"/>
<path class="st0" d="M69.2,62c0.3-0.5,0.5-1,0.7-1.6c0.4-0.9,0.6-1.8,0.7-2.8c0.1-0.8,0.4-2.4,0.4-3.2c0-1,0-2-0.1-2.9
	c-0.1-0.9-0.3-1.8-0.7-2.7c-0.2-0.4-0.5-0.8-0.9-1.1c-0.1-0.1-0.3-0.2-0.4-0.3c-0.2-0.2-0.4-0.4-0.6-0.5c-0.2-0.1-0.4-0.1-0.3-0.3
	c0.1-0.3,0.4-0.5,0.7-0.4c1,0,1.9,0.5,2.4,1.3c0.8,1.2,1.2,2.6,1.3,4c0.1,1.3,0.1,2.6,0,3.9c0,0.7-0.1,1.4-0.1,2l-0.1,1
	c-0.1,0.4-0.1,0.7-0.2,1.1s-0.1,0.7-0.2,1l-0.1,0.3c-0.2,0.7-0.6,1.4-1,2c-0.8,1.1-1.6,2.1-2.5,3L68,65.9c-0.7,0.6-1.5,1-2.3,1.5
	l-0.6,0.3c-1.7,0.9-3.5,1.6-5.3,2.2c-1.2,0.4-2.3,0.7-3.5,0.9c-0.7,0.1-1.3,0.2-2,0.3c-0.6-0.2-0.9-0.5-0.1-1
	c0.5-0.2,0.9-0.3,1.3-0.5c1.1-0.3,2.2-0.8,3.4-1.1c0.4-0.1,0.8-0.3,1.3-0.5l1.2-0.4c1.4-0.5,2.7-1.1,4-1.9c0.7-0.4,1.4-0.9,2.1-1.4
	c0.2-0.2,0.3-0.3,0.5-0.5C68.4,63.3,68.8,62.7,69.2,62z"/>
<path class="st0" d="M58.1,47.7c-0.2,0.2-0.3,0.4-0.5,0.6c-0.4,0.2-0.7,0.5-1,0.8c-0.4,0.3-0.7,0.6-1.1,0.9
	c-0.1,0.2-0.3,0.3-0.4,0.5l-0.3,0.6c-0.2,0.4-0.4,0.8-0.6,1.2L53.9,53c0,0.1-0.1,0.2-0.3,0.2l-0.5,0.2c-0.1,0-0.4,1.2-0.5,1.1
	s-0.3-0.2-0.3-0.5s0.2-1.9,0.4-2.2c0.2-0.6,0.4-1.2,0.7-1.7c0.3-0.5,0.7-1,1.1-1.4c0.4-0.5,0.9-1,1.3-1.5c0.1-0.1,0.2-0.2,0.3-0.3
	l0.1-0.1c0.3-0.2,0.5-0.4,0.8-0.6c0.5-0.3,1-0.6,1.5-1h0.1c0.4-0.2,0.8-0.3,1.2-0.4h0.3c0.9-0.3,1.8-0.5,2.7-0.5c0.6,0,1.1,0,1.7,0
	c0.3,0,0.7,0.1,1,0.2c0.2,0.3,0.2,0.7-0.1,0.9c0,0-0.1,0.1-0.1,0.1c-0.2,0-0.4,0.1-0.6,0.2c-0.5,0.1-1,0.2-1.5,0.2
	c-0.2,0-0.4,0-0.6,0.1c-0.2,0-0.4,0.1-0.5,0.1c-0.6,0.1-1.2,0.2-1.8,0.4c-0.4,0.1-0.7,0.2-1.1,0.3c-0.1,0-0.2,0-0.3,0.1L58.1,47.7z"
	/>
</svg>
