<svg id="Layer_1" data-name="Layer 1" xmlns="http://www.w3.org/2000/svg" viewBox="0 0 100 100"><defs><style>.cls-1{fill:#2a3e45;}</style></defs><path class="cls-1" d="M75.61,22.09c-.52-.12-1-.34-1.58-.42a11.09,11.09,0,0,0-1.62-.15c-1.19,0-1.54-.45-1.3-1.56.14-.65.29-1.3.41-2s.46-1.28.57-1.94.22-1.33.3-2a2,2,0,0,0-.77-1.53A2,2,0,0,0,70,13c-.49.54-1,1.11-1.43,1.67s-.73,1.29-1.19,1.86-1.15,1-1.59,1.55c-.58.75-1.09,1.06-1.87.65s-1.33-.74-2-1.1-1.38-.61-2.07-.91a2,2,0,0,0-1.63-.07c-.2.12-.18,1.16,0,1.54.31.55.75,1,1.08,1.55s.6,1.09.94,1.62.56,1.14.91,1.65c.48.71.85,1.2.13,1.84-.53.47-1.13.85-1.62,1.35s-.95,1-1.4,1.58A1.66,1.66,0,0,0,58,29.29a1.6,1.6,0,0,0,1.35.71,11,11,0,0,0,1.59-.53c.53-.16,1.21-.25,1.76-.41-.32.65-.82,1.25-1.09,1.78s-.68,1.22-1,1.74-.65,1.23-.94,1.75-.69,1.15-1,1.7-.61,1.12-1,1.74-.55,1.11-.9,1.76-.62,1.09-1,1.74-.54,1.18-.86,1.83a14.5,14.5,0,0,0-1.75-1c-.61-.33-1.08-.9-1.66-1.08a8.06,8.06,0,0,0-2-.25,7.28,7.28,0,0,0-2,0,8.3,8.3,0,0,0-1.79.84,11.24,11.24,0,0,0-1.64,1,16.47,16.47,0,0,0-1.51,1.22,19.15,19.15,0,0,0-1.42,1.31c-.06-.42-.29-.59-.26-.75.14-.66.55-1.26.73-1.9s.27-1.33.51-2a17.9,17.9,0,0,1,.95-1.78,15.1,15.1,0,0,1,1-1.75,6.73,6.73,0,0,0,.68-1.43,6.34,6.34,0,0,0,.39-1.51c.1-.77-.07-2.23-.55-2.46a3.26,3.26,0,0,0-2.65.47c-.52.41-.95.93-1.43,1.37s-1.09.79-1.53,1.28a16.44,16.44,0,0,0-1,1.7,13.09,13.09,0,0,0-.87,1.76,13.43,13.43,0,0,0-1,1.71A14.19,14.19,0,0,0,36,42c-.11.76-.34,1.43-.46,2.19A3.85,3.85,0,0,1,35,41.87c.07-.58.25-1.13.36-1.7s.21-1.14.32-1.71.13-1.15.23-1.72a5.42,5.42,0,0,0,.25-1.67,1.71,1.71,0,0,0-.92-1.47,1.79,1.79,0,0,0-1.71.47,9.21,9.21,0,0,0-1.28,1.56,8.45,8.45,0,0,0-.92,1.76,9.83,9.83,0,0,0-.75,1.85,14.67,14.67,0,0,0-.36,2c0,.66-.1,1.34-.09,2a14.8,14.8,0,0,1,.15,1.54c-.4-.68-.81-1.21-1.13-1.77s-.54-1.37-.91-1.94a1.18,1.18,0,0,0-2.08,0,7.74,7.74,0,0,0-.47,1.74,7.67,7.67,0,0,0-.54,1.73,8.12,8.12,0,0,0,.42,1.77A7.61,7.61,0,0,0,26,48a17.67,17.67,0,0,0,1,1.88,19.57,19.57,0,0,0,1.16,1.79c.44.56,1,1,1.5,1.52s1,1,1.53,1.48.91,1.1,1.42,1.59,1,.86,1.51,1.29.87,1,1.36,1.45a15.07,15.07,0,0,1,1.42,1.34c.43.5,1.07.86,1.39,1.45a8.19,8.19,0,0,1,.47,2c.15.63.32,1.26.47,1.88s.43,1.25.51,1.88a8.56,8.56,0,0,1,0,2,6.8,6.8,0,0,1-.52,1.88c-.25.61-.33,1.28-.55,1.9s-.66,1.17-.92,1.78A2.26,2.26,0,0,1,37,76.16a10.53,10.53,0,0,0-1.74,1.27,7.61,7.61,0,0,0-1.28,1.69,7.05,7.05,0,0,0-1,1.84,8.17,8.17,0,0,0-.43,2.22c.69.1,1.52.21,2.22.26s1.41,0,2.11,0,1.41,0,2.11,0L41,83.37c.7,0,1.4,0,2.1,0l2.11-.15c.7-.05,1.38-.32,2.08-.37l2.1-.16c.7,0,1.48.17,2.18.14a10.57,10.57,0,0,0,.74-2.18,8.06,8.06,0,0,0,.2-2.21,8.49,8.49,0,0,0-.26-2.19c-.24-.94-.62-1.32-1.6-1.13a3.45,3.45,0,0,1-.74,0c0-.79,0-1.54,0-2.31s-.16-1.56-.16-2.33,0-1.55,0-2.32a3.4,3.4,0,0,1,.52-1.79A2.9,2.9,0,0,1,51.54,65c.65-.31,1.28-.65,2-.91s1.44-.25,2.11-.5a10.26,10.26,0,0,0,1.72-1,7.73,7.73,0,0,0,1.49-1.3,7,7,0,0,0,1.1-1.61,7.78,7.78,0,0,0,.94-1.76A9.78,9.78,0,0,0,61,55.69a11.25,11.25,0,0,0-.18-2.16,11.06,11.06,0,0,0-.6-2.09,12.3,12.3,0,0,0-1.07-1.9,12.42,12.42,0,0,0-1.26-1.78,10.48,10.48,0,0,0-1.64-1.33c.35-.68.66-1.23,1-1.81s.47-1.42.79-2,.88-1.2,1.21-1.77.76-1.23,1.1-1.81.51-1.33.88-1.94S62,36,62.38,35.35s.74-1.13,1.12-1.81.68-1.17,1-1.85.5-1.42.85-2.1c.34.5.76,1.12,1,1.58s.66.95,1,1.4A11.27,11.27,0,0,0,68.34,34a3.67,3.67,0,0,0,2.58,1c1.16-.07,1.24-1.32,1.14-2.26-.07-.59,0-1.2-.1-1.79s-.21-1.17-.29-1.75-.1-1.19-.18-1.78c-.13-1,.13-1.22,1.18-1.31a5.9,5.9,0,0,0,2.06-.73,4.21,4.21,0,0,0,1.52-1.48C76.87,22.92,76.7,22.34,75.61,22.09ZM55.37,55.54a1.88,1.88,0,0,1-.6,1.7,2,2,0,0,1-1.73.27,26.24,26.24,0,0,1-2.77-.85c.29-.57.57-1.23.84-1.78s.76-1,1-1.58.57-1.12.85-1.68.51-1.12.79-1.68l.1,0c.14.62.31,1.23.46,1.85s.56,1.2.69,1.82S55.27,54.9,55.37,55.54Zm-8.08-1.35c-.27-.54-.57-1.19-.82-1.68s-.5-1-.75-1.54-.58-1-.82-1.5a1.7,1.7,0,0,1,.74-2.33,5.7,5.7,0,0,1,1.7-.54,6.61,6.61,0,0,1,1.72-.24,13.15,13.15,0,0,1,1.76.07c.57.07,1.07.08,1.67.18-.36.5-.68.9-1,1.39s-.48,1.15-.84,1.65-.94.82-1.29,1.32-.54,1.1-.9,1.61Zm.19,26.54a1.93,1.93,0,0,1-1.78-1.9,1.8,1.8,0,0,1,1.78-1.76,1.85,1.85,0,0,1,1.84,1.76A2,2,0,0,1,47.48,80.73Zm9-31.68a8.85,8.85,0,0,1,.87,1.56c.22.54.43,1.1.66,1.64s.53,1.08.72,1.63a10.42,10.42,0,0,1,.43,1.73,5.15,5.15,0,0,1-.26,1.85,4.4,4.4,0,0,1-.71,1.65,5.5,5.5,0,0,1-1.22,1.34,7,7,0,0,1-1.57.95,9.73,9.73,0,0,1-1.75.62,11,11,0,0,0-1.68.84,9,9,0,0,0-1.75.68A6.15,6.15,0,0,0,49,65a6,6,0,0,0-.86,1.62,7.58,7.58,0,0,0-.34,2c-.93,0-2-.43-2.9-.39a21.28,21.28,0,0,0-2.37.39c-.16-.6-.41-1.11-.55-1.7s-.23-1.21-.38-1.8-.15-1.23-.32-1.81-.66-1.07-.87-1.64a7.67,7.67,0,0,0-.74-1.7,10.2,10.2,0,0,0-1.22-1.41c-.43-.44-.87-.87-1.35-1.28s-1-.81-1.43-1.2S34.6,55.38,34.14,55l-1.37-1.25c-.46-.42-.77-1-1.21-1.43s-.84-.9-1.25-1.36a17.81,17.81,0,0,1-1.16-1.44,12.36,12.36,0,0,1-.93-1.58,10.68,10.68,0,0,1-.71-1.7,12.67,12.67,0,0,1-.45-1.84c-.08-.63-.11-1.25-.21-1.88.15,0,.3-.12.44-.16.28.55.66,1.07.93,1.63s.26,1.26.56,1.8.67,1,1,1.46.48,1.06.78,1.56.8.87,1.13,1.35,1,.46,1.53.72c0-.62.25-1.21,0-1.69a15,15,0,0,1-.69-1.94,14.64,14.64,0,0,1-.73-1.93,14.2,14.2,0,0,1,0-2.06,12.63,12.63,0,0,1,0-2,14.18,14.18,0,0,1,.59-2,14.71,14.71,0,0,1,.7-1.91,3.14,3.14,0,0,1,1.3-1.45,7.78,7.78,0,0,1-.24,1.47,15.94,15.94,0,0,0-.75,1.85,14.91,14.91,0,0,0-.26,2,13.26,13.26,0,0,0,.09,2,14.9,14.9,0,0,0,.06,2A15.85,15.85,0,0,0,34,47a13.74,13.74,0,0,0,.89,1.7c.3.57.32,1.3.64,1.85.14.24.93.25,1.16.11s.82-.64.83-1c0-.58-.11-1.16-.12-1.74s.06-1.17,0-1.75,0-1.16,0-1.74a12.58,12.58,0,0,1,.06-2.14,11.56,11.56,0,0,1,.61-2A12.07,12.07,0,0,1,39,38.27a14.76,14.76,0,0,1,1.25-1.72,17.38,17.38,0,0,1,1.33-1.67,19.63,19.63,0,0,1,1.53-1.49c.07-.06.23.07.68.07a9.63,9.63,0,0,1-1,2.56,19.31,19.31,0,0,0-1.14,1.64c-.33.58-.53,1.23-.8,1.83a18.73,18.73,0,0,0-.59,1.89,19.37,19.37,0,0,0-.75,1.85c-.14.65-.24,1.31-.33,2s.09,1.33,0,2-.3,1.3-.3,2,.73,1.06,1,1.67c.47-.46,1-.72,1.29-1.27s.57-1.3.87-1.93a13.83,13.83,0,0,1,1.13-1.79,8.32,8.32,0,0,1,1.29-1.69A7,7,0,0,1,46.21,43a7.05,7.05,0,0,1,2-.41,6.78,6.78,0,0,1,2,0,6.69,6.69,0,0,1,1.79.86,5.87,5.87,0,0,1,1.57,1c-.57,0-1,.22-1.49.23a12.19,12.19,0,0,1-1.62-.3,8,8,0,0,0-2.35.05,7.82,7.82,0,0,0-2.18.84,10.44,10.44,0,0,0-2,1.23,2.75,2.75,0,0,0-1,2.15,16.92,16.92,0,0,0,.71,2,13.69,13.69,0,0,0,.63,2.06,14,14,0,0,0,1.09,1.88,14.83,14.83,0,0,0,1.47,1.6,13.31,13.31,0,0,0,1.77,1.24,13.9,13.9,0,0,0,1.75,1.26,7.43,7.43,0,0,0,1.77.86,4.55,4.55,0,0,0,2,0,4.38,4.38,0,0,0,1.71-1,5,5,0,0,0,1.28-1.93,3.86,3.86,0,0,0,.14-2.3c-.18-.68-.3-1.37-.5-2s-.39-1.34-.58-2a9.52,9.52,0,0,1-.36-1Zm15.2-24.48c-1.07.21-1.66.24-2,.59s-.33.92-.24,2c0,.56.17,1.13.19,1.7s0,1.13,0,1.71-.12,1-.17,1.56c-.28-.6-.45-1.12-.74-1.71s-.58-1.17-.81-1.79a8.76,8.76,0,0,0-.77-1.74,1.57,1.57,0,0,0-1.68-.78,17,17,0,0,0-1.74.73c-.63.21-1.29.14-1.92.35-.33-.09-.63-.08-.58-.42.6-.42,1.27-.83,1.82-1.3.72-.61,1-1,1-1.39a2,2,0,0,0-.54-1.66c-.42-.53-.87-1-1.28-1.57A12.26,12.26,0,0,1,61,19.21l1.63.75c.53.24,1,.63,1.51.88A1.77,1.77,0,0,0,65.8,21c.33-.13.6-.43,1-1.23a15.58,15.58,0,0,1,1.4-2c.52-.63,1.09-1.23,1.6-1.88l.22.16c-.15.78-.15,1.58-.3,2.36s-.33,1.54-.51,2.31c-.3,1.23.12,2,1.19,2.28.59.14,1.2.25,1.82.36a8.86,8.86,0,0,1,1.7.28A23.41,23.41,0,0,1,71.64,24.57Z"/></svg>