<?xml version="1.0" encoding="utf-8"?>
<!-- Generator: Adobe Illustrator 25.2.1, SVG Export Plug-In . SVG Version: 6.00 Build 0)  -->
<svg version="1.1" id="Layer_1" xmlns="http://www.w3.org/2000/svg" xmlns:xlink="http://www.w3.org/1999/xlink" x="0px" y="0px"
	 viewBox="0 0 82 82" style="enable-background:new 0 0 82 82;" xml:space="preserve">
<style type="text/css">
	.st0{fill-rule:evenodd;clip-rule:evenodd;fill:#DBDACA;}
	.st1{fill-rule:evenodd;clip-rule:evenodd;fill:#CEC6C6;}
	.st2{fill-rule:evenodd;clip-rule:evenodd;fill:#E8E8DE;}
	.st3{fill-rule:evenodd;clip-rule:evenodd;fill:#A06457;}
	.st4{fill-rule:evenodd;clip-rule:evenodd;fill:#2A3E45;}
	.st5{fill:none;}
	.st6{fill-rule:evenodd;clip-rule:evenodd;fill:#0E0E11;}
	.st7{fill-rule:evenodd;clip-rule:evenodd;fill:#B7B7A3;}
	.st8{fill-rule:evenodd;clip-rule:evenodd;fill:#FFFFFF;}
</style>
<path id="Fill-1" class="st0" d="M53,15.8c0-0.2,0.2-0.3,0-0.5c0.1-0.2,0.1-0.3,0.1-0.5c0-0.2,0-0.5,0.1-0.7h0.2
	c0,0.3-0.1,0.5-0.2,0.8c0,0.3,0,0.5,0.1,0.8L53,15.8"/>
<path id="Fill-3" class="st1" d="M24.7,50.3c0-0.3,0-0.6,0-0.9c0-0.2,0.2-0.3,0.3-0.3c0,0,0,0,0.1,0c0.1,0,0.1,0.2,0.2,0.2
	c-0.2,0-0.4-0.1-0.5,0.2c0,0.2,0,0.4,0,0.6C24.8,50.2,24.8,50.2,24.7,50.3"/>
<path id="Fill-5" class="st1" d="M24.9,51.6l-0.1-1.2c0.1,0.2,0.1,0.4,0.2,0.6C25,51.2,24.9,51.4,24.9,51.6"/>
<path id="Fill-7" class="st0" d="M53.8,13.5c0.1-0.3,0.1-0.6,0.2-0.9C54.1,13.1,54.1,13.4,53.8,13.5"/>
<path id="Fill-9" class="st0" d="M53.6,13.8L53.6,13.8c0-0.1,0-0.2,0-0.2l0.3-0.1C53.9,13.7,53.7,13.7,53.6,13.8"/>
<path id="Fill-13" class="st0" d="M53.9,12c0,0,0-0.1,0-0.1S53.9,11.9,53.9,12"/>
<path id="Fill-15" class="st2" d="M57.5,16.2l0.7,0.3L58.1,17l-0.6-0.7v0.4l-0.5-0.1L57.5,16.2"/>
<path id="Fill-22" class="st3" d="M67.3,21.2c0-0.1,0-0.1,0-0.2c0-0.2,0-0.3,0-0.5c0-0.2,0-0.4,0.1-0.6l0.1,0.1l0.6-0.3
	c0-0.1,0-0.2,0-0.3c0-0.1,0-0.2,0-0.3c-0.1,0.1-0.2,0.1-0.3,0.2l-0.3,0.1c0,0.1,0,0.1-0.1,0.2c-0.1,0.1-0.2,0.2-0.3,0.3
	c-0.1,0.3-0.2,0.6-0.3,0.9c-0.2,0.3-0.3,0.7-0.1,1l0.4-0.2C67.5,21.6,67.2,21.4,67.3,21.2"/>
<path id="Combined-Shape" class="st4" d="M52.8,6.7H53l-0.1,0.6c0,0.2,0,0.3,0,0.5l0.2,0.1h0.3c0,0,0-0.1,0-0.2
	c0.1-0.3,0.3-0.3,0.5-0.1l0,0l0,0l0.3-0.1c0.1,0.2-0.3,0.5,0.1,0.7L54.5,8c0.2-0.3,0.3-0.6,0.7-0.6c0.1-0.3,0.2-0.1,0.3,0h0.2
	l0.4,0.4l0.2,0.1h0.1V8c0,0.1,0,0.2,0,0.2l0.1,0.2L57,8.3c0.2,0.3,0.6,0.4,0.9,0.2c0,0,0,0,0,0c0,0.2,0.1,0.5,0.2,0.7H58l0.2,0.2
	l0,0l0.1-0.2l0.3-0.4c0.1-0.1,0.1-0.2,0.2-0.3l0,0H59c0.1,0.3,0.2,0.6,0.3,0.9c0.3-0.1,0.7-0.1,0.7-0.5l0.4,0.1l0.3,0.8l0.1-0.1
	c0.2-0.2,0.4-0.3,0.7-0.5c0,0,0.2,0.2,0.3,0.3l0.6-0.2c0,0,0.1-0.1,0.1-0.1c0.1,0.1,0.3,0.2,0.4,0.3c0.2-0.3,0.4-0.3,0.7-0.1
	c0.2,0.1,0.3,0.3,0.5,0.3c0.1,0.1,0.3,0.2,0.5,0c0.2-0.2,0.3,0,0.3,0.2c0,0.2,0,0.4,0.4,0.4c0.4,0,0.3,0.3,0.5,0.5l0.3,0.4
	c0.1-0.2,0.2-0.4,0.3-0.6c0.3,0.1,0.5,0.3,0.3,0.6c-0.2,0.3-0.2,0.4,0.2,0.5l-0.1,0.3L66,12.6l0,0l0,0l0.3,0.3l0.2-0.2
	c0-0.2,0-0.3,0.1-0.5h0.1c0.2-0.1,0.3-0.3,0.4-0.4c0.1-0.1,0.2-0.1,0.4-0.1h0.3c0,0.1,0.1,0.2,0,0.2c-0.1,0-0.2,0.1-0.3,0.1
	l-0.1,0.1c0,0.1,0,0.2,0.1,0.3l0,0h0.1l0,0h0.1c0.5,0,0.6-0.4,0.9-0.6l0.2,0.3c0.3,0,0.5,0.2,0.6,0.4c0.1-0.1,0.2-0.1,0.3-0.1
	c0.1,0,0.2,0.1,0.3,0.1c0,0.4,0,0.7-0.2,1c0,0-0.2,0-0.2,0l-0.2,0.2l0.5,0.2c-0.1,0.1-0.1,0.1-0.2,0.2c-0.3,0.1-0.6,0.4-0.6,0.8
	c0,0-0.1,0.1-0.2,0.1v0.2c0,0.2,0.1,0.5-0.2,0.7l0,0v0.2l0,0L68.6,17l0,0l0.4,0.1l0,0l0.4,0.1c0-0.1,0-0.2,0-0.4c0,0,0.2,0,0.2-0.1
	c0,0.2,0.1,0.5,0.2,0.7c0,0,0,0,0,0.1c0,0.1,0.1,0.3,0.1,0.4l-0.6,0.2l0.2,0.1l0.6,0.1c0,0.1,0,0.2,0,0.3l0,0l0.5-0.4
	c0-0.1,0-0.2,0.1-0.3c0-0.1,0.2-0.1,0.3-0.1c0,0.1,0,0.2,0,0.3c-0.1,0.3-0.2,0.5-0.3,0.7l0,0v0.2l0,0v0.2c0,0.2,0.2,0.3,0.4,0.3
	c0,0,0,0,0,0c0.1,0,0.2,0.1,0.3,0.1c-0.2,0.4-0.3,0.7-0.5,1.1l0,0l-0.2,0.5l-0.5,0.8c-0.3,0.4-0.3,0.9-0.2,1.3
	c0,0.6,0.1,1.1,0.1,1.7c0,0.2,0,0.4-0.1,0.5c0,0.3-0.1,0.5-0.1,0.8l-0.6,0.9l0.2,0.3L69.2,28h0.1L69.1,29l0.3,0.1l0,0
	c-0.5,0-0.2,0.3-0.2,0.6S69,30.4,69,30.8l0.4-0.1c-0.2,0.2-0.2,0.3-0.3,0.4l0.2,0.1l-0.3,0.4c0.1,0.2,0.2,0.5,0.3,0.7
	c-0.1,0.1-0.2,0.2-0.3,0.3c-0.2,0.5,0.2,1-0.1,1.5c-0.1,0.3,0.1,0.7,0,1c0,0.7,0,1.4-0.1,2.1c0,0.1,0,0.2,0,0.2
	c0,0.1,0.1,0.2,0.1,0.4c-0.1,0.8-0.3,1.6-0.3,2.4c0.1,0.6,0,1.2-0.3,1.7c-0.2,0.3-0.3,0.5-0.4,0.8c0,0.3-0.1,0.7-0.2,1
	c-0.1,0.4,0.2,0.9-0.2,1.3c-0.2,0.2-0.9,0.6-1.2,0.4s-0.3,0-0.5,0.1c-0.2,0.1-0.7,0.5-1,0.5c-0.5,0-0.6,0.6-1.2,0.6l0,0
	c0,0-0.2,0.2-0.2,0.2c-0.5,0-1,0-1.5,0s-0.7-0.3-1,0c0,0-0.1,0-0.2-0.1c-0.3-0.2-0.4,0-0.4,0.2c0,0.2,0,0.4,0,0.6
	c0.2,0.7,0.2,0.8-0.4,0.9c0,0.2,0.1,0.3,0.2,0.5h-0.1l-0.3-0.2h-0.1c0,0.3,0.1,0.5,0.1,0.8c-0.6,0.2-1.2,0.4-1.8,0.6
	c-0.5,0.1-1,0-1.4-0.2c-0.1,0-0.2,0-0.4,0c-0.1,0-0.2-0.1-0.4-0.2c-0.2-0.1-0.3-0.2-0.4-0.3c-0.1-0.1-0.2-0.1-0.3-0.1
	c-0.3-0.3-0.3-0.8-0.8-1c0,0,0-0.1,0-0.2c0-0.1,0-0.3,0-0.4c0-0.4-0.2-0.5-0.5-0.5s-0.3,0.2-0.3,0.5c0,0.2-0.2,0.6-0.4,0.6l-0.4-0.2
	c0,0.1,0,0.2,0,0.3c-0.4-0.1-0.8,0.2-0.9,0.5c-0.1,0.3-0.2,0.3-0.5,0.2c-0.3,0.6-0.5,0.6-1,0.3c-0.2,0.3-0.7,0.4-1,0.2
	c0,0-0.1,0-0.1-0.1c-0.5-0.3-1.1-0.5-1.6-0.8c-0.2-0.1-0.3-0.3-0.5-0.4c-0.1,0-0.2,0-0.3,0.1c-0.1,0.1-0.1,0.1-0.2,0.1
	c-0.4-0.1-0.5,0.1-0.7,0.4s-0.4,0.5-0.8,0.3c-0.2,0-0.6-0.2-0.6,0.3c0,0.1,0,0.3,0,0.4l-0.7-0.2L43.5,50L43,49.6l0,0l-0.2-0.2
	c-0.4,0.1-0.5-0.4-0.8-0.4c-0.6,0.1-1.2,0.1-1.7-0.2c-0.2-0.1-0.4-0.3-0.6-0.4c-0.1-0.1-0.3-0.1-0.4-0.2c-0.1-0.1-0.3-0.3-0.4-0.5
	h-0.3c-0.1-0.3-0.3-0.6-0.4-0.9L37.9,47c0-0.2,0-0.3,0-0.4l-0.2-0.1l-0.2,0.4c-0.2-0.4-0.9,0-0.8-0.6l-0.2-0.2l-0.3,0.5
	c-0.1,0.4-0.5,0.7-0.9,0.9c-0.1,0-0.3-0.1-0.5-0.1l-0.5,0.3h-0.9c0-0.1,0.1-0.2,0.2-0.5c-0.2,0.2-0.4,0.4-0.5,0.3
	c-0.3-0.1-0.4-0.4-0.4-0.6c0,0,0-0.1,0-0.1c0-0.1,0-0.1-0.1-0.2l0,0l0,0c-0.4-0.4-0.7-0.9-0.8-1.4c-0.3-0.8-0.3-1.7-0.4-2.5
	c0-0.5-0.1-1.1-0.1-1.6c0-0.2,0-0.4,0.1-0.6c0.1-0.9,0.2-1.8,0.3-2.8c0.1-0.7,0.1-1.4,0.2-2.1l0,0v-0.6c0-0.1,0-0.2,0-0.3
	c0.1-0.8,0.1-1.5,0.2-2.3c0.1-0.9,0.1-1.9,0.2-2.8c0.1-0.9,0.3-2,0.3-3c0.2-0.8,0.3-1.5,0.3-2.3V24c0.2-0.6,0.3-1.2,0.5-1.7
	c0.2-0.4,0.2-0.9,0.1-1.3c-0.1-0.3,0.1-0.6,0.1-0.9c0-0.1,0.1-0.3,0.1-0.4c0-0.6,0-1.2,0-1.8c0-0.1,0.1-0.3,0.2-0.3
	c0.2-0.2,0.5-0.4,0.8-0.5c0-0.1,0-0.2-0.1-0.3h-0.1h-0.3c0-0.1,0-0.2,0.1-0.3c0.2-0.2,0.3-0.4,0.5-0.5c-0.1-0.1-0.2-0.2-0.2-0.4
	l0.7-0.6v0.4c0.2-0.1,0.4-0.2,0.5-0.3c0.2-0.1,0-0.1,0-0.2l0.1-0.4c0-0.2,0.1-0.3,0.2-0.6L35.9,14h-0.1c0.1-0.3,0.2-0.6,0.4-0.9
	l0.4,0.3c0.1-0.2,0.3-0.3,0-0.5c-0.1,0-0.2-0.3-0.2-0.5l0.4,0.2c0.1-0.2,0.3-0.4,0.4-0.6c-0.2-0.2-0.4-0.3,0-0.5
	c0.1-0.1,0-0.4-0.1-0.6c-0.1-0.2,0.2-0.5,0.3-0.8s0.2-0.7,0.5-0.8C37.9,9.2,38,9.1,38,9c0.1-0.3,0.3-0.5,0.5-0.6c0,0,0-0.1,0-0.1
	c0-0.1,0-0.1,0-0.2c0.1-0.2,0.2-0.3,0.2-0.5l0.4,0.5h0.3l0.5-0.4c0.4,0.2,0.6,0.6,0.5,1.1l0,0v0.2l0,0v0.2c0,0,0.1,0.1,0.1,0.1
	l0.3,0.2c0-0.1,0.1-0.2,0.1-0.3C41.2,9.6,41.4,9,41.7,9l0.1,0.4h0.1c0-0.1,0-0.3,0.1-0.4c0.1,0.3,0.2,0.5,0.3,0.8l0,0l0.3-0.1
	c0.2-0.3,0.3-0.6,0.5-0.8c0.1,0,0.2,0,0.3,0c0.1,0.1,0.2,0.2,0.3,0.3l0.4-0.7l0.6,0.2c0.3,0.1,0.3,0.2,0.1,0.5
	c0.1,0.5,0.1,0.5,0.5,0.4c0-0.2,0-0.3,0-0.5c0.8,0.1,1.1,1,1.8,1c0,0,0,0,0,0.1c0,0.1,0.3,0.3,0.4,0.5l-0.3,0.2l0.3,0.5
	c0.3-0.2,0.6-0.5,0.9-0.8c0.1-0.3,0.5-0.5,0.8-0.4c0,0.2-0.1,0.3-0.1,0.5l0,0l0.1-0.1L50,11c0.2-0.2,0.4-0.5,0.8-0.4l0,0l0,0
	l0.5-0.7h0.2l-0.1-0.2l0,0l0,0l-0.4-0.3l0.3-0.2l0,0l0.3-0.6l0,0h0.2C52,8.6,52,8.4,52.1,8.2c0.1-0.2,0.1-0.7,0.2-1.1h0.2v0.9
	c0-0.2,0.1-0.4,0.2-0.7l0,0L52.8,6.7z M33.3,46.2L33.3,46.2L33.3,46.2c-0.1-0.1-0.2-0.1-0.3-0.1l0,0C33.1,46.1,33.2,46.2,33.3,46.2z
	 M46.7,20.2c-0.1,0.2-0.1,0.3-0.2,0.5l-0.2-0.1v0.1l-0.2-0.1c0,0.2-0.1,0.5-0.2,0.5c-0.2,0,0-0.1,0-0.1c-0.3,0.1-0.5,0.2-0.5,0.4
	l0.3,0.2h-0.3l-0.1-0.2L45,21.8c0.1,0.1,0.1,0.1,0.2,0.2h-0.3c0.1,0.3,0.1,0.3-0.1,0.6l-0.4-0.2c0,0.1,0.1,0.1,0.2,0.2
	c0,0-0.1,0.1-0.1,0.1h-0.2c0.2,0.2,0.1,0.5,0.1,0.6h-0.1c0.1,0.3,0,0.7,0.2,1c0,0.2,0,0.4-0.1,0.5c-0.1,0.2,0,0,0.1,0.1
	c0.2,0.4,0.3,0.8,0.4,1.2c0.1,0.3,0.1,0.6,0.1,0.9c0.2,0.3,0.3,0.5,0.3,0.8c0.1,0.1,0.1,0.3,0.2,0.4c0,0.2,0.1,0.3,0.2,0.3
	c0.2,0.3,0.3,0.7,0.4,1l0,0l0.2,0.4c0.5,0.3,0.4,1,0.8,1.4c0.1,0.3,0.2,0.5,0.4,0.8c0.1,0.4,0.2,0.7,0.5,1h0.2
	c0,0.1,0.1,0.2,0.2,0.3c0.1,0,0.2,0,0.2,0v0.2c0.3,0.5,0.6,1,0.9,1.4c0,0.1,0,0.1,0,0.2l0.2,0.2c0,0.2,0,0.5,0.2,0.7l0.2-0.1
	l0.2,0.1c0.2,0.2,0.2,0.3,0.4,0.5c0.1,0.1,0.2,0.1,0.3,0.2l0.6,0.3v-0.1c0.3,0.2,0.6,0,0.9,0l0.4-0.2v-0.2l-0.2-0.5
	c0.1-0.1,0.1-0.2,0.2-0.3c0.9-0.6,1.6-1.3,2.3-2.1v-0.2L54.8,33l0.3-0.1c0.3-0.3,0.4-0.8,0.8-1c0.1-0.2,0.3-0.4,0.4-0.6l0.1-0.1
	c0.1-0.1,0.1-0.3,0.2-0.4s0-0.1-0.1-0.2l0.4-0.1v-0.3l0,0l0.2-0.4c0.3,0,0.1-0.3,0.2-0.5l0.2-0.1l0.1-0.2l0.2-0.1
	c0.1-0.2,0.1-0.3,0.2-0.5c-0.3-0.4-0.2-0.9,0.2-1.2c0.1,0,0.1-0.1,0.2-0.1c0.2-0.2,0.3-0.3,0.4-0.5l0,0c0.1-0.3,0.3-0.7,0.4-1.1
	l-0.2-0.2c0-0.3,0.2-0.3,0.3-0.4c-0.1-0.3,0-0.6,0.1-0.8L59.4,24c0-0.2,0.3-0.4,0.1-0.6v-0.5l0-0.1c0-0.1,0-0.1,0-0.2l-0.3-0.2v-0.3
	L59,21.8h-0.3c0-0.2-0.2-0.2-0.4-0.2c0.2-0.3,0-0.5-0.2-0.6c-0.2-0.2-0.5-0.1-0.7-0.1c0-0.1-0.1-0.2-0.1-0.3l-0.2,0.3L57,20.6
	l-0.5,0.2c0-0.1-0.1-0.2-0.1-0.2h-0.1c0,0.1,0,0.2,0,0.2l-0.1-0.1l-0.4,0.2l-0.2-0.2L55.5,21l-0.3,0.1l-0.1-0.2l-0.3,0.6h0l-0.3,0.3
	h-0.2l-0.3,0.3L54,22c-0.1,0.2-0.2,0.3-0.3,0.5c0,0.1,0.1,0.1,0.1,0.2h-0.3c-0.1,0-0.2,0.1-0.2,0.2c0,0.1,0,0.2,0,0.3
	c0,0.1-0.1,0.2-0.2,0.3c-0.1,0-0.2,0-0.3,0c-0.1,0,0.1,0.3,0.2,0.5L52.5,24c0,0.1,0,0.2-0.2,0.2l0.1,0.2l-0.2,0.1
	c-0.1-0.1-0.2-0.2-0.3-0.3c0-0.1,0-0.2,0-0.3l-0.3-0.1c0-0.1,0-0.2,0-0.2c-0.1,0-0.2-0.1-0.3-0.2v-0.4l0,0l-0.3-0.5l-0.4-0.5h-0.2
	c0-0.1,0-0.1,0-0.2h-0.3c0,0,0-0.1,0-0.1c-0.1-0.1-0.2-0.2-0.3-0.2c-0.1-0.2-0.2-0.3-0.3-0.5h-0.4c0,0,0-0.1,0-0.1l-1-0.4l-0.5,0.1
	l-0.2-0.2l-0.3,0.2h-0.2C47,20.4,46.8,20.3,46.7,20.2z M69.7,20.2h-0.3l0,0h-0.3l-0.4,0.2c0.2,0.1,0.2,0.3,0,0.5l0.1,0.4h0.2h0.1
	l0,0h0.1l0,0l0,0l0.7-0.4l0,0v-0.5l-0.4-0.1L69.7,20.2z M69.5,18.8c-0.3,0-0.3,0-0.3,0.2l0,0c0.1,0.1,0.1,0.1,0.1,0.2
	c0,0.4,0.3,0.3,0.4,0.1c0.2-0.1,0.1-0.3,0.1-0.4l0,0L69.5,18.8z M68.8,17.8c-0.1,0.4-0.3,0.4-0.7,0.3c0,0.1,0.1,0.2,0.2,0.2
	c0.3,0,0.7,0.3,1,0l0,0l0.1-0.2l0,0l0.1-0.2c0,0-0.1-0.1-0.2,0C69,18.1,68.9,17.9,68.8,17.8z M69.2,13.1L69.2,13.1
	c-0.1,0.2-0.3,0.2-0.4,0c0,0.1,0,0.1-0.1,0.2c0,0,0,0.1,0,0.1c0,0.1,0,0.2,0.1,0.3c0,0.1,0.1,0.1,0.2,0.2s0,0.1,0,0.1l0,0h0.1l0,0
	h0.1l0,0l0.1-0.3l0,0l0.1-0.3l0,0l-0.1-0.1l0,0L69.2,13.1L69.2,13.1z M68.7,13.3L68.7,13.3z M69.7,12.9L69.7,12.9L69.7,12.9
	L69.7,12.9C69.6,13,69.6,13,69.7,12.9L69.7,12.9z M37.7,12.3c0-0.4-0.3-0.3-0.4-0.2l0,0v0.8l0.5-0.2L37.7,12.3z M57.4,9.2l-0.5,0.6
	l0.6,0.1l0,0V9.4c0.2,0.3,0.4,0.6,0.7,0.9c0-0.3,0.1-0.6,0.1-0.8l0,0l-0.5-0.2l0,0L57.4,9.2z M53.4,8.8c0,0.3-0.1,0.6-0.1,0.8h0.1
	l0,0l0.3-0.3l0,0L54,9.1C54,9,54,9,53.9,8.9l0,0h-0.1L53.4,8.8z M57.9,8.6h-0.3v0.1l0,0L57.9,8.6L57.9,8.6z"/>
<path id="Path" class="st5" d="M55.7,44.3C55.7,44.3,55.7,44.3,55.7,44.3L55.7,44.3C55.7,44.2,55.7,44.2,55.7,44.3"/>
<path id="Path-2" class="st5" d="M55.8,44.4c0,0.1,0,0.1,0,0.2l0,0l0,0l0,0c0,0-0.1-0.2-0.1-0.3l0,0v0.1"/>
<path id="Path-3" class="st5" d="M52.1,44.8L52.1,44.8L52.1,44.8C52.1,44.8,52.1,44.9,52.1,44.8L52.1,44.8L52.1,44.8L52.1,44.8
	L52.1,44.8"/>
<path id="Fill-14" class="st6" d="M65.3,39.9L65.3,39.9L65.3,39.9L65.3,39.9"/>
<path id="Fill-28" class="st3" d="M68.2,22.1L68.2,22.1l0,0.3l-0.1-0.1C68.1,22.2,68.2,22.2,68.2,22.1 M68.3,21.4
	c0.1-0.2,0.2-0.4,0.3-0.6l-0.3-0.2l-0.1,0.3c-0.1,0.1-0.1,0.2-0.2,0.3s-0.2,0.4-0.3,0.6c0-0.1,0-0.1,0-0.2c-0.4,0.2-0.4,0.5,0,0.7
	c0.1,0.1,0.1,0.2,0.2,0.3h0.6c0-0.1,0-0.3,0-0.3l-0.3-0.5C68.2,21.6,68.3,21.5,68.3,21.4"/>
<path id="Fill-32" class="st3" d="M65.4,17.9c-0.2-0.1-0.3-0.2-0.5-0.4C64.9,18,64.9,18.1,65.4,17.9"/>
<path id="Fill-34" class="st3" d="M59.9,16L59.9,16L59.9,16z"/>
<path id="Fill-36" class="st3" d="M48.5,15.9L48.5,15.9L48.5,15.9L48.5,15.9"/>
<path id="Fill-38" class="st3" d="M45.1,26.4c-0.2,0.1-0.2,0.2-0.1,0.3L45.1,26.4L45.1,26.4L45.1,26.4z"/>
<path id="Fill-49" class="st7" d="M27.3,15L27,14.9c0,0,0,0,0,0.1l-0.1-0.1l0,0c0,0,0,0.1,0,0.1c-0.2,0.1-0.4,0.2-0.5,0.3l-0.1,0.4
	l0.6,0.1h0.5C27,15.4,27.1,15.2,27.3,15"/>
<path id="Fill-55" class="st7" d="M25.4,35.1L25.4,35.1"/>
<polygon id="Fill-57" class="st7" points="25.2,9.4 25.2,9.4 25.2,9.4 "/>
<path id="Fill-59" class="st7" d="M25.4,35.1L25.4,35.1L25.4,35.1L25.4,35.1"/>
<path id="Fill-61" class="st7" d="M42.3,18.5v0.5l0.3-0.1c0-0.1,0-0.1,0-0.2S42.5,18.4,42.3,18.5"/>
<path id="Fill-63" class="st7" d="M23.6,28.9L23.6,28.9L23.6,28.9L23.6,28.9"/>
<g id="Group-19">
	<path id="Shape" class="st4" d="M23.4,49.1c0-0.1-0.2-0.3-0.2-0.4l0,0c0-0.2,0.1-0.4,0.4-0.4L23.5,49v0.2L23.4,49.1z M35.1,53.1
		c0,0-0.1,0-0.1,0l-0.3-0.2c-0.1-0.1-0.2-0.2-0.3-0.3c0-0.5-0.6-0.2-0.8-0.5l-0.3,0.2l0,0c-0.2-0.3-0.3-0.1-0.4,0.1
		c-0.1,0.2-0.1,0-0.2,0.1l0,0c-0.1,0-0.3,0.1-0.4,0.2c-0.1,0.1-0.2,0.2-0.4,0c-0.1,0-0.1,0-0.2,0l0,0c-0.1,0.5-0.2,0.6-0.5,0.4
		l-0.6,0.6c-0.1-0.1-0.2,0-0.3,0.1c0,0,0,0,0,0.1l0,0L30,54.1l0,0l-0.3,0.1l0,0c-0.2,0.2-0.5,0.3-0.7,0.5s-0.2,0-0.2,0l0,0
		c0,0.2-0.1,0.1-0.2,0.1l0,0c0.1,0.4-0.1,0.2-0.3,0.1v0.4l0,0h-0.2h-0.3v0.1c0,0,0,0,0,0.1l0,0c-0.2,0.2-0.3,0.2-0.4-0.1l0,0
		c0.1-0.1,0.1-0.3,0.1-0.4c-0.3-0.2-0.2-0.4-0.1-0.6c0-0.1,0-0.2,0.1-0.3c0-0.3,0.1-0.6,0.2-0.9c0.1-0.2,0.2-0.3,0.3-0.4
		c0.1-0.5,0.2-0.9,0.2-1.3c0,0-0.1-0.1-0.1-0.2c0.5-0.3,0.5-0.5,0.1-0.8H28c0.2-0.1,0.4-0.2,0.4-0.5c-0.1-0.3-0.1-0.6-0.1-0.8v-0.1
		c0-0.3-0.2-0.6,0.2-0.7l0,0c0-0.3-0.1-0.6-0.2-0.9h0.1c0.5-0.1,0.5-0.3,0.3-0.7c0-0.1,0-0.2,0-0.2v-0.1c0.2-0.4,0.3-0.8,0.2-1.3
		c0-0.1,0-0.2,0.1-0.4v-0.1c0.1-0.3,0.3-0.6,0-0.9l0,0c0.2-0.1,0.3-0.3,0.2-0.5v-0.1c-0.1-0.2-0.2-0.5,0.2-0.6
		c0.1-0.1,0.2-0.2,0.2-0.4c0,0,0-0.1-0.1-0.1c-0.1,0-0.1-0.1-0.1-0.2c0-0.3-0.1-0.7-0.1-1c0-0.1,0.1-0.2,0-0.2
		c-0.2-0.3-0.3-0.6-0.2-1c0,0,0-0.1,0-0.1v-0.1c-0.2-0.4-0.5-0.3-0.8-0.2L28.1,39l0,0l-0.2,0.6l-0.1-0.4l0,0
		c-0.1,0.1-0.1,0.1-0.2,0.2c-0.1,0.1-0.1,0.2-0.2,0.3l-0.2-0.1l0,0v0.3l0,0l-0.2-0.1l0,0l-0.3,0.6l0,0h-0.1l0.1,0.3h-0.5
		c0.2,0.6-0.3,0.9-0.5,1.3h-0.1c0,0,0,0.2,0,0.2c-0.2,0.3-0.3,0.6-0.3,1c0,0.1-0.2,0.1-0.2,0.2c0,0.3-0.1,0.5-0.2,0.8
		s-0.3,0.1-0.2,0.4c-0.3,0.2-0.1,0.6-0.3,0.8s0,0.3-0.1,0.5c-0.1,0.2-0.2,0.2-0.2,0.2v0.4l0,0L24,47l0,0L23.9,47l0,0
		c-0.1,0.3-0.1,0.6,0.1,0.9L24,48l0,0l0,0l0,0c0,0,0-0.1-0.1-0.1l-0.2,0.2l0,0c-0.3-0.3-0.2-0.7-0.1-1l0,0c0-0.1,0-0.3,0.1-0.4
		c0.3-0.2,0.2-0.4,0.1-0.6c0,0,0.1-0.1,0.1-0.1s0-0.4,0.1-0.5c0.4-0.3-0.2-0.8,0.2-1.2c0,0,0-0.1,0-0.1l0,0c0-0.1-0.1-0.3-0.1-0.4
		c0-0.3,0.2-0.5,0.2-0.8c0-0.5-0.2-1,0.3-1.3c0-0.1,0-0.2-0.1-0.3c-0.1-0.3-0.2-0.6-0.3-1c0-0.1-0.2-0.2-0.2-0.3
		c0-0.3-0.1-0.6-0.4-0.8l0,0c-0.2-0.1-0.6-0.5-0.8,0c0,0-0.1,0-0.1,0c-0.3,0-0.4,0.2-0.5,0.5V40l0,0c0,0,0,0,0-0.1
		c0-0.1-0.1,0-0.2,0.1c-0.1,0.3-0.2,0.6-0.3,0.8c0,0.1-0.1,0.1-0.1,0.2l-0.1-0.1l-0.1,0.3c0,0.1,0,0.1,0,0.2c0,0-0.1,0.3-0.2,0.5
		c-0.1,0.3-0.2,0.6-0.2,0.9c0,0.1-0.2,0.2-0.2,0.3l-0.4,1.2l0,0c0.1,0.1,0.1,0.2-0.1,0.4c0,0.1-0.1,0.2-0.1,0.3l-0.2,0.6
		c0,0.1-0.1,0.3-0.1,0.4l-0.1-0.1l0,0c0,0.3,0,0.6-0.1,0.9c0,0.1-0.1,0.2-0.1,0.2c0,0.1-0.1,0.4-0.1,0.6c-0.1,0.3-0.2,0.7-0.2,1v0.1
		l0,0v-0.1l0,0c0,0-0.1,0-0.1,0.1c0,0.1-0.1,0.4-0.1,0.6v0.4l0,0v0.1l0,0c0,0-0.1,0-0.1-0.1v-0.4l0,0c-0.1-0.1-0.2-0.2-0.2-0.3
		c0-0.2,0.1-0.4,0.2-0.5l0,0c0.2-0.3,0.2-0.7,0-1c-0.1-0.1-0.1-0.2-0.1-0.3c0-0.4,0-0.7,0-1.1l0,0c0-0.1,0-0.3,0.2-0.3
		c0.2-0.2,0.2-0.4,0.1-0.7c-0.2-0.3-0.1-0.5,0-0.7c0.1-0.2,0.1-0.3,0.1-0.3c-0.2-0.2-0.1-0.3,0-0.5c0-0.1,0-0.1,0-0.2l0,0
		c0-0.1-0.1-0.3,0-0.3c0.2-0.2,0.3-0.6,0.2-0.9c0-0.2,0-0.3,0-0.5c0.2,0,0.3,0,0.3-0.2s-0.2-0.1-0.3-0.1s0-0.2,0-0.2s0.1-0.3,0-0.3
		v0.1l0,0h-0.1l-0.1-0.4c0,0,0-0.1-0.1-0.2L19.2,40l-0.3,0.1l0,0l-0.3-0.4l0,0c0.1,0.5-0.3,0.6-0.5,0.7c-0.3,0.1-0.3,0.2-0.3,0.4
		l0,0c0,0.3-0.2,0.5-0.6,0.3c0.1,0.4-0.2,0.7-0.5,0.8l-0.1,0.2l-0.2,0.4h-0.1l0,0c-0.1,0.2-0.1,0.3-0.2,0.5s-0.2,0.2-0.2,0.3
		c-0.1,0.1-0.2,0.5-0.4,0.7c0,0-0.1,0-0.1,0l0.1,0.3l0,0l-0.2-0.1l0,0l-1.4,3.8v0.9h0.1l-0.1,0.1l0,0l0,0l-0.2,0.1l0,0
		c0.1,0.3,0,0.6-0.2,0.8c-0.1,0.3-0.2,0.5-0.3,0.8c0,0.1,0,0.3,0,0.4l-0.3,1.3h-0.1c0,0.2-0.1,0.3-0.2,0.5c-0.1,0.2-0.1,0.4,0,0.6
		c0,0.1-0.1,0.3-0.2,0.4c-0.1,0.4,0.1,0.9-0.2,1.3c-0.1,0.1-0.1,0.2,0,0.4c0.2,0.6,0.2,1.3,0,1.9l0,0c0,0.1-0.2,0.3,0.1,0.3v0.2
		c-0.2,0-0.1,0.1-0.1,0.3c0,0.1,0,0.1,0,0.2l0,0c0,0.3-0.1,0.5-0.1,0.8c-0.1,0.2,0.2,0.4,0,0.7l0,0c-0.1,0.2-0.2,0.5,0.1,0.7
		c0,0,0,0.1,0,0.2c0,0.3-0.3,0.7,0.2,1c-0.2,0.2-0.2,0.5,0,0.8c0,0,0.1,0.1,0.1,0.1c0.1,0.1,0.2,0.2,0.2,0.4h-0.1l0,0L12.4,63l0,0
		c0,0.1,0,0.1,0,0.2c0.1,0.5,0.1,0.9,0.2,1.4v0.1c0.1,0.5,0.1,1,0.1,1.5c0.1,0.4,0.1,0.8,0.1,1.2c0,0.2,0,0.4,0.1,0.6l0,0
		c0.1,0.3,0.1,0.5,0.2,0.7c0,0.1,0,0.2-0.1,0.3l0.4,2.6l0,0l0.5,0.1l0,0l-0.3,0.2l0,0l0.5,0.6l0,0h0.1c0.1-0.2,0.2-0.3,0.4-0.3l0,0
		c0.1,0,0.3-0.1,0.4-0.2c0-0.1-0.2-0.3-0.2-0.3c0.2-0.3-0.1-0.5-0.1-0.8v-0.1c0-0.1,0-0.1,0-0.2c-0.1-0.2-0.2-0.5-0.2-0.7
		c0-0.1,0-0.2,0.1-0.3c0.3-0.1,0.2-0.3,0.1-0.5c-0.1-0.2-0.2-0.3-0.3-0.5c0.1-0.1,0.2-0.2,0.2-0.2c0-0.3-0.1-0.6-0.2-0.9
		c-0.2-0.3-0.1-0.4,0-0.7l0,0c-0.2,0-0.3-0.1-0.2-0.3c0.2-0.2,0-0.2,0-0.3l0,0c0-0.1-0.1-0.3-0.1-0.4c0-0.4,0-0.8,0-1.2
		s0-0.5-0.1-0.8v-0.1c0-0.3-0.1-0.5-0.1-0.8c0-0.2,0-0.5,0-0.7c0-0.3,0.1-0.5,0.1-0.8s-0.3-0.5,0-0.8c0,0,0,0,0-0.1v-0.9
		c0-0.2,0-0.3,0-0.5c0-0.6,0-1.2,0-1.8c0.1-0.8,0.3-1.5,0.4-2.3c0.2-1.1,0.3-2.2,0.4-3.3c0.2-1.4,0.5-2.7,0.7-4.1
		c0.1-0.6,0.2-1.2,0.3-1.7l0.3-1.2l0,0c0,0,0-0.1,0-0.1c0.1-0.3,0.2-0.6,0.4-0.9c0.1-0.2,0.3-0.3,0.5-0.1c0,0,0,0,0,0
		c0.1,0,0.1,0.2,0.1,0.3v1.1c0,0.2,0,0.4,0,0.5c0,0.6,0,1.2,0,1.9c-0.2,0.8-0.2,1.7-0.3,2.5c-0.2,1.2-0.2,2.4-0.3,3.6
		c0,0.7,0,1.4-0.1,2.1V56c-0.1,0.5-0.2,1.1-0.2,1.7c0,0.2,0,0.4,0,0.6c0,0.1,0,0.3,0,0.4c0,0.2,0,0.5,0,0.7c0,0.3,0,0.5,0,0.8
		c0,0.2,0.1,0.3,0.2,0.4c0,0,0.2,0,0.2,0c0.3,0.1,0.6,0.2,0.9,0.3c0.1-0.1,0.2-0.3,0.2-0.5c0.1-0.4,0.2-0.9,0.4-1.3
		c0.2-0.4,0.1-0.8,0.3-1.3c0.3-0.7,0.3-1.4,0.5-2.1v-0.1c0.2-0.7,0.3-1.4,0.5-2.1c0.3-1.3,0.5-2.7,0.8-4c0.4-1.7,0.7-3.3,1.2-5
		c0.1-0.4,0.3-0.9,0.4-1.3c0-0.1,0.2-0.1,0.3-0.2c0.1-0.1,0.1,0.2,0.2,0.3c0,0.1,0,0.2,0,0.3c0.2,0.8,0.1,1.7-0.1,2.5v0.1
		c-0.1,0.3-0.1,0.5-0.2,0.8c-0.1,0.7-0.2,1.4-0.4,2.1c-0.2,1.2-0.5,2.5-0.7,3.7c-0.1,0.8-0.2,1.6-0.4,2.3v0.3
		c-0.2,0.9-0.3,1.9-0.5,2.8c-0.1,0.5-0.1,0.9-0.1,1.4c0,0.2,0.1,0.5,0.4,0.5c0,0,0,0,0.1,0l0,0c0.3,0,0.5,0.1,0.8,0.2
		c0.2,0,0.5,0,0.6-0.2c0.1-0.4,0.3-0.8,0.4-1.2c0.4-1.6,0.7-3.1,1.2-4.6c0.3-1.3,0.8-2.6,1.2-3.9c0.3-0.9,0.6-1.9,0.9-2.8
		c0.4-1.2,0.8-2.3,1.2-3.4c0.2-0.4,0.4-0.7,0.6-1h0.2c0,0.2,0,0.4,0,0.6c-0.1,0.4-0.2,0.9-0.3,1.3l-0.6,1.9l-0.2,0.6
		c-0.1,0.4-0.2,0.7-0.3,1.1c0,0.3,0,0.5,0,0.8h-0.2l0.1,0.3l0,0c-0.4,0.3-0.1,0.7-0.2,1.1l-0.2-0.2l0,0l0.2,0.3h-0.2h0.1l0,0
		l-0.1,0.9l0,0c-0.1,0.4,0,0.8-0.3,1.2c0,0,0,0.1,0,0.2c0,0.1,0,0.4,0.1,0.6l-0.4-0.2l0,0c0.1,0.2,0.2,0.4,0.2,0.7
		c0,0.2-0.3,0.3-0.2,0.6l0,0c0,0.2,0,0.4-0.1,0.5v0.1c-0.1,0.2-0.2,0.4-0.2,0.6c0,0,0,0.1,0,0.1h-0.2l0.2,0.8l0,0l-0.3-0.2l0,0v0.8
		c0,0.1,0,0.2,0,0.3L23.6,58l0.3,0.9l0,0l-0.3-0.1l-0.1,0.6c-0.2,1-0.1,1.1,0.2,1.3c0.1,0,0.2-0.1,0.2-0.1c0.1,0.1,0.1,0.1,0.2,0.2
		c0.1,0.1,0.2,0.3,0.4,0.3c0.1,0,0.2,0.1,0.3,0.1l0.4-0.4l0,0v0.2l0,0c0.3,0,0.6-0.2,0.8-0.5l0.2-0.5c0.1-0.1,0.2-0.3,0.2-0.5
		c0.3-0.2,0.5-0.5,0.6-0.8c0.2-0.2,0.4-0.4,0.7-0.6c0.3-0.2,0.5-0.4,0.4-0.7c0.3,0,0.5-0.1,0.6-0.3l0,0c0.5-0.5,1.1-1,1.6-1.4
		c0.5-0.4,1.1-0.7,1.7-1c0.2-0.1,0.4-0.1,0.6,0c0.4,0.1,0.5,0.3,0.3,0.6c-0.6,1-1.3,1.9-1.9,2.9c-0.2,0.3-0.3,0.5-0.6,0.8
		c-0.5,0.5-1,1-1.5,1.6c-0.7,0.9-1.3,1.9-2,2.8c-0.7,1-1.1,2-1.4,3.2c-0.1,0.2,0,0.5-0.1,0.5s-0.1,0.4-0.1,0.7c0,0.1,0,0.1,0,0.2
		c-0.3-0.1-0.3,0.1-0.3,0.3c0,0.2,0.2,0.6,0.2,0.9h-0.5l0,0l0.4,0.4l0,0h-0.3l0,0L25,70l0.1,0.1h-0.3l0.4,0.3l0,0
		c-0.1,0-0.2,0-0.3,0c0,0,0,0.1,0,0.2l0,0l0.2,1.3H25l0,0l0.3,0.5l0,0H25l0,0l0.3,0.3l0,0h-0.2l0,0l0.3,0.4h-0.4
		c0.3,0.2,0.5,0.5,0.5,0.8c0.1,0.2,0.2,0.5,0.4,0.6c0,0,0.2,0,0.3,0l0,0c0.1,0,0.3-0.1,0.4-0.1c0.2,0,0.5,0,0.7,0.1
		c0.2,0.1,0.3-0.2,0.3-0.4c0-0.1-0.1-0.3-0.2-0.4c0.5-0.2,0.5-0.5,0.3-0.9c-0.2-0.4,0-0.8-0.2-1.2s0-0.8,0-1.2v-0.2
		c0.1-0.3-0.1-0.6-0.3-0.7c0.4-0.5,0.1-0.9-0.1-1.3c0.1-0.2,0.3-0.3,0.3-0.5c-0.1-0.2-0.2-0.5-0.3-0.7l0.1-0.1l0.1-0.1l0.1-0.1
		c0.3-0.3,0.3-0.3,0-0.6l0,0c0.3-0.1,0.5-0.4,0.6-0.7c0-0.3,0.1-0.6,0.3-0.8c0.2-0.2,0.3-0.4,0.2-0.6c0.1-0.1,0.2-0.2,0.3-0.3
		c0.3-0.4,0.6-0.8,0.9-1.2l0.2-0.3c0.3-0.3,0.6-0.7,0.9-1.2c0,0,0,0,0.1-0.1l0,0c0.2-0.2,0.6-0.3,0.6-0.7c0,0,0.1,0,0.1-0.1l0.3-0.4
		c0-0.1,0.1-0.1,0.1-0.2c0.2-0.2,0.3-0.3,0.5-0.5c0.3-0.5,0.6-1,0.9-1.5l0.4-0.5l-0.1-0.1l0,0h0.1h0.1c0.3-0.2,0.4-0.5,0.3-0.8l0,0
		c-0.1-0.2,0-0.4,0.2-0.4l0,0c0.3,0,0.5-0.2,0.5-0.5c0-0.4,0.1-0.7,0.1-1.1l0.5-0.3l0,0l-0.2-0.4l-0.2-0.4L35.1,53.1z"/>
</g>
<g id="Group-3">
	<path id="Fill-1-2" class="st8" d="M65.8,14.2v2c-0.1,0-0.3,0.1-0.4,0.1l0.3,0.2c-0.2,0.4,0.2,0.8-0.1,1.2c0,0.3,0.4,0.6,0,1
		l0.2,0.1c0,0.3,0,0.7,0,1h-0.4l0.4,0.2c0,0.2,0,0.4-0.1,0.6l0,0c0,0.1,0.1,0.3,0.1,0.4l-0.2,0.1c0.1,0.1,0.1,0.2,0.2,0.3l-0.3,0.1
		l0.3,0.3c-0.1,0.1-0.2,0.2-0.3,0.2l0.2,0.2v0.5l-0.3,0.1l0.3,0.2l-0.3,0.2l0.3,0.2c-0.1,0.1-0.2,0.2-0.3,0.4l0.3,0.2l-0.3,0.4
		l0.2,0.2c0,0.2,0,0.3,0,0.5l-0.4,0.1l0.4,0.2l-0.2,0.5c0.1,0.3,0,0.6-0.1,0.9l0.2,0.1l-0.3,0.4c0.1,0.1,0.2,0.3,0.1,0.4
		c0,0.1,0,0.3,0,0.4c0.1,0.3,0,0.5-0.3,0.5c0.1,0.1,0.2,0.1,0.3,0.2c-0.1,0.4-0.1,0.9,0,1.3l-0.2,0.2l0,0c0,0.3,0,0.7,0,1
		c0,0.1-0.1,0.2-0.1,0.3c0.2,0.1,0.1,0.3,0,0.6h0.2l-0.1,0.1L65,32.7c0,0.1,0.1,0.2,0.1,0.2L64.9,33c0.2,0.2,0.3,0.6,0.2,0.9v1.4
		l-0.2,0.1l0.3,0.2l-0.4,0.2l0.2,0.1v0.9L64.8,37l0.4,0.2l-0.4,0.1c0.1,0.1,0.2,0.1,0.3,0.2c-0.1,0.1-0.1,0.1-0.2,0.2
		c0.3,0.1,0.2,0.3,0.2,0.6c0,0.2-0.2,0.2-0.3,0.3l0.3,0.2v0.5l-0.2,0.1l0.3,0.2l-0.3,0.1c0,0,0,0.1,0,0.2l0.3,0.1
		c0,0.1,0,0.2,0.1,0.3L65,40.3c0.1,0.1,0.2,0.1,0.3,0.2c0,0.1,0,0.3,0,0.4L65,41l0.3,0.2c0.2,0.3,0,0.5-0.2,0.7l0.2,0.1
		c0,0.1,0,0.2,0,0.3l-0.2,0.1l0.2,0.2c0,0.2-0.2,0.3-0.4,0.3c-0.1,0-0.3,0.1-0.4,0.1l-0.5-0.1c-0.1,0.1-0.2,0.2-0.3,0.2l0,0L63,43.2
		c-0.2,0.1-0.4,0.1-0.6,0.1c-0.2-0.1-0.4-0.1-0.7,0c-0.3,0-0.6,0.2-0.7,0.2c-0.5-0.1-0.8-0.2-1.2-0.3c-0.1,0.1-0.3,0.2-0.5,0.2
		c-0.2,0-0.5,0-0.7-0.1l-0.5-0.1c-0.1,0.1-0.1,0.1-0.1,0.2h-1.2l-0.1-0.5l-0.4-0.2h-0.4l-0.2-0.1c-0.2,0.1,0,0.3,0.1,0.4L55,42.8
		l-0.4,0.1l-0.3-0.2c-0.1,0.2-0.3,0.2-0.5,0c-0.2-0.2,0-0.1,0-0.2l-0.6,0.3L53,42.3c0,0.1-0.1,0.3-0.2,0.4h-0.8l-0.2,0.4
		c-0.2-0.4-0.6-0.2-0.9-0.4L50.6,43l-0.3-0.2c0,0.1-0.1,0.2-0.2,0.3L49.8,43l0,0l-0.2-0.3L49.1,43l-0.6-0.2l-0.3,0.1L47.9,43
		l-0.1-0.3c-0.1,0.1-0.1,0.1-0.1,0.2h-0.5l-0.3,0.2c-0.1-0.1-0.1-0.2-0.1-0.3l-0.1,0.2l-0.6-0.1c0,0.1-0.1,0.1-0.1,0.2
		c-0.2,0-0.2,0-0.3-0.3l0,0c0,0,0,0.1-0.1,0.2H45c0-0.1-0.1-0.2-0.1-0.3c-0.1,0.1-0.1,0.2-0.2,0.3c-0.1-0.1-0.1-0.1-0.2-0.2
		c0,0.1-0.1,0.3-0.1,0.4L44.2,43l-0.3,0.2l-0.1-0.2l0,0c0,0.1,0,0.1,0,0.2c-0.4,0.3-0.8-0.1-1.3,0c-0.1,0.2-0.4,0-0.6,0l-0.5,0.3
		L41,43.2c-0.2,0.5-0.6,0.2-0.9,0.3c-0.3,0-0.5,0.2-0.6,0.3l-0.3-0.1L38.3,44l-0.2-0.2L38,44l-0.3-0.1c-0.1-0.2-0.2-0.4-0.2-0.7
		L37,43c0.1-0.4,0.2-0.8,0.1-1.2c0-0.5,0-0.9,0-1.4c0-0.5,0-0.9,0-1.4c0-0.3,0-0.5,0-0.8c0-0.3,0-0.6,0-0.9c0-0.3,0-0.5,0-0.7
		c0-0.2,0-0.4,0-0.6c0-0.5,0-0.9,0-1.3c0-0.3,0-0.5,0-0.8c0-0.3,0-0.4,0-0.6s0-0.2,0-0.2c-0.1-0.3-0.1-0.6,0-0.9
		c0.1-0.2,0.1-0.5,0-0.7c0-0.5,0.2-1,0.6-1.4h-0.1c0-0.2-0.1-0.3-0.1-0.5l0.2-0.2V29l-0.3-0.1c0-0.3,0.3-0.6,0.2-0.9l0.3-0.2
		l-0.1-0.4l0.1-0.2c-0.1-0.2-0.1-0.4-0.2-0.5c0.2-0.1,0.4-0.2,0.2-0.4l-0.2,0.1c0-0.1,0-0.1,0-0.2c0-0.1,0.3-0.1,0.4-0.2
		c0-0.2-0.1-0.4-0.1-0.5c0-0.1,0.2-0.3,0.3-0.4c-0.1-0.3-0.2-0.7-0.2-1l0.3-0.2c-0.1-0.3-0.2-0.6-0.2-0.8c0.2-0.3,0.3-0.6,0.4-0.8
		l-0.1-0.3c0.1-0.1,0.2-0.2,0.3-0.2c0-0.1,0-0.2,0-0.3c0-0.1,0-0.3,0-0.4c0-0.2,0-0.3,0-0.5c0-0.3,0.3-0.6,0.1-1
		c0-0.1,0-0.2,0.1-0.3c0.2-0.3,0.3-0.5,0.5-0.8c0-0.2,0-0.3,0-0.5c0.1-0.3,0.1-0.6,0.2-0.8l-0.2-0.4c0.4-0.3,0.4-0.3,0.2-0.8
		l0.3-0.3l-0.3-0.2c0-0.1,0.1-0.2,0.1-0.3c-0.1-0.2-0.2-0.4-0.1-0.6l0.6-0.2c0.2,0.2,0.5,0.2,0.8,0c0,0,0.1,0,0.1,0l0.9,0.1l0.2-0.1
		c0.4,0,0.8-0.1,1.2-0.3h0.8c0.4,0,0.9-0.1,1.3-0.1c0.6,0,1.1-0.1,1.7-0.1c0.4-0.1,0.9-0.1,1.3,0c0.4,0.1,0.8,0.1,1.2,0
		c0.1,0,0.2-0.1,0.2-0.1h1.1v0.1l1.7-0.3v0.2l0,0c0.2,0,0.4,0,0.5,0c0.2,0.1,0.4,0,0.5-0.1c0.1,0,0.3-0.1,0.4-0.1c0.1,0,0.3,0,0.4,0
		l0.9,0.1l0.3-0.2c0.1,0,0.2,0,0.3,0c0.2,0.1,0.4,0.1,0.6,0c0.1,0,0.2,0,0.4,0.1l0.4-0.2l0.7,0.2c0.3-0.2,0.7-0.2,1-0.1
		c0.3,0.1,0.7,0.1,1-0.1c0.1-0.1,0.2-0.1,0.3-0.1c0,0.1,0,0.2,0,0.3c0.2-0.2,0.5-0.2,0.8-0.1l-0.1,0.2h0.1c0.2-0.1,0.4-0.1,0.5-0.1
		c0.4,0.1,0.7,0.1,1.1,0c0,0,0,0.1,0,0.2c0.1-0.1,0.2-0.1,0.4-0.2c0.1,0,0.3,0,0.4,0.1h0.5c0.4-0.3,0.9-0.3,1.3,0.1L65.1,14
		c0.2,0,0.3,0.1,0.5,0.2 M35.5,39.9c-0.1-0.1-0.1-0.2-0.1-0.3C35.5,39.5,35.5,39.7,35.5,39.9 M67.5,31.1c0.1-0.3,0.1-0.5,0.2-0.8
		s-0.1-0.2-0.2-0.2c0-0.3,0.1-0.6,0.1-1c0-0.1-0.1-0.1-0.1-0.2c0-0.1,0-0.3,0.1-0.4l0.2-0.3v-0.6c0-0.2,0.2-0.3-0.1-0.5
		c0.1-0.2,0.1-0.5,0.2-0.8s-0.1-0.2-0.1-0.3l0.2-0.2c0-0.3,0.1-0.6,0.1-0.9l-0.2-0.1c0.1-0.2,0.2-0.3,0.3-0.5
		c0.1-0.2-0.1-0.6-0.1-0.9c0-0.3,0.1-0.5,0.1-0.7s0.1-0.8,0.1-1.2l0,0V21l-0.1-0.2l0,0c0-0.6,0.1-1.3,0.1-1.9l-0.1-0.1
		c0-0.2,0.1-0.4,0-0.6c-0.1-0.3-0.1-0.7,0-1c0-0.1,0-0.3,0-0.4c0-0.1,0-0.3,0-0.4c0-0.2-0.1-0.5,0.1-0.7c0-0.3-0.1-0.6-0.1-0.9
		c0-0.3,0-0.4,0-0.5c0-0.3,0-0.7,0-1c-0.1-0.3-0.1-0.6,0-0.9L68,12.1c0-0.2,0.1-0.4,0.1-0.6c-0.1-0.1-0.3-0.2-0.4-0.3
		c-0.2,0.3-0.5,0.1-0.8,0l-0.3,0.1c-0.2-0.1-0.3-0.2-0.5-0.3l-0.2,0.2l-0.6-0.2c-0.2,0-0.4,0.1-0.6,0.2L64.2,11l-0.6,0.2L62.5,11
		v0.1l-0.4,0.2C62,11.2,62,11.1,62,11c-0.2-0.1-0.5-0.2-0.6,0.1L60.6,11l-0.3,0.3l-0.8-0.2c-0.2,0.1-0.3,0.1-0.5,0.2L58.1,11
		l-0.9,0.2l-0.5-0.2c-0.1,0.1-0.1,0.1-0.2,0.2l-0.4-0.2l-0.3,0.3l-0.6-0.1c-4.4,1.4-9.9,0.8-14.5,1h-0.3l-2.3,0.1
		c-0.2,0.3-0.3,0.6-0.4,1c-0.1,0.5-0.2,1-0.3,1.4c0,0.3,0,0.6,0,0.9c0,0.1,0,0.2,0,0.3c0,0.1,0,0.4-0.1,0.6l0,0c0,0.5-0.1,1-0.1,1.5
		l0,0c0,0.2,0,0.3,0,0.5l0,0c0,0.2,0,0.3,0,0.5c0,0.8-0.1,1.7-0.2,2.5l0.1,0.2l-0.1,0.1c-0.2,0.8,0,1.6-0.2,2.5s-0.1,1.6-0.3,2.5
		c0.1,0.6-0.2,1.2-0.3,1.9l-0.4,0.1c0,0.4,0,0.9,0,1.3c0,0.4,0,0.8,0,1.2c0,0.2,0,0.3,0.1,0.5c-0.1,0.1-0.1,0.3-0.2,0.4
		c0,0.2,0,0.3,0,0.5c0,0.3-0.1,0.6,0.1,0.7c0.1,0.2,0.1,0.5,0.1,0.8c-0.2-0.1,0.1-0.4-0.3-0.4v0.9l0.3,0.1c0,0.2,0,0.3,0,0.4h-0.3
		l0.3,0.2c-0.2,0-0.3,0.1-0.2,0.3c0.1,0.2,0,0.5,0,0.7c0,0.6,0,1.2,0,1.7c0,0.2,0,0.3-0.1,0.5l0,0c0.1,0.2,0.1,0.3,0.2,0.5
		c0.1,0.1,0.1,0.3,0.1,0.5l-0.1,0.1h-0.1c0,0.3,0,0.5-0.1,0.8c-0.1,0.3,0,0.7,0.3,0.8c-0.1,0.1-0.2,0.2-0.2,0.3l-0.2-0.1
		c0.1,0.3-0.1,0.7,0.2,1l0.3-0.2c-0.1,0.4-0.1,0.8,0,1.2v0.5c-0.1,0.2-0.1,0.4-0.2,0.6c0.1,0.1,0.2,0.2,0.3,0.3c0,0.1,0,0.1,0,0.2
		l-0.2,0.2l0.2,0.4c0-0.1,0.1-0.2,0.1-0.3c0.1,0.5,0.2,0.7,0.5,0.7l0.3,0.4l0.4-0.1l0.3,0.2l0.9-0.3c0-0.1,0-0.2,0.1-0.3H39l0.2-0.3
		c0.5,0,0.9,0.3,1.3,0h1.3l0,0l0.4,0.1l0.4-0.2l0.3,0.1c0.8-0.2,1.6-0.3,2.4-0.3l0.2,0.1c0.2-0.1,0.4,0,0.7,0.1l0.4-0.2l0.3,0.2h1.3
		c0.3,0.2,0.7,0.1,1.2,0.2l0.4-0.2l0.4,0.2h1.7c0.8,0,1.6,0.2,2.3,0.4h0.4c0.3,0,0.5,0,0.8,0c0.5,0,0.9-0.1,1.4-0.2
		c0.3,0,0.5-0.2,0.8-0.2c0.3-0.1,0.7-0.1,1.1-0.2l0.2-0.2H60l0.3-0.2c0.5,0,1,0.1,1.5,0.2c0.5,0,1,0,1.4-0.1c0.1,0,0.3-0.1,0.4-0.1
		l0.7,0.2l0.3-0.2l1.1-0.3c0.1,0,0.2,0.1,0.2,0.1c0.5-0.1,1.1-0.1,1.6,0h0.1c0.2-0.1,0.3-0.3,0.2-0.5l0.3-0.3v-0.4
		c0.1-0.2,0.1-0.5,0-0.7l0.1-0.2c-0.1-0.5-0.2-1-0.1-1.5c0-0.2,0-0.4,0-0.6s0-0.3,0-0.5H68c0-0.1,0-0.3,0-0.4c0-0.1-0.1-0.3-0.1-0.4
		c0.1-0.1,0.1-0.3,0.2-0.4c0-0.4-0.1-0.8-0.1-1.2l-0.1-0.2C68,37.3,68,37,68,36.6c0-0.1,0.1-0.2,0.1-0.3c-0.1-0.5-0.1-0.9-0.2-1.4
		l0.2-0.5l0.5,0.1h0.1c0-0.1,0-0.2,0-0.2s-0.1-0.4-0.2-0.8c-0.2-0.7-0.2-1.4-0.2-2.2C68.1,31.1,67.8,31.1,67.5,31.1z"/>
</g>
</svg>
